<svg xmlns:dc="http://purl.org/dc/elements/1.1/" xmlns:cc="http://creativecommons.org/ns#" xmlns:rdf="http://www.w3.org/1999/02/22-rdf-syntax-ns#" xmlns:svg="http://www.w3.org/2000/svg" xmlns="http://www.w3.org/2000/svg" xmlns:sodipodi="http://sodipodi.sourceforge.net/DTD/sodipodi-0.dtd" xmlns:inkscape="http://www.inkscape.org/namespaces/inkscape" version="1.1" x="0px" y="0px" viewBox="0 0 100 125"><g transform="translate(0,-952.36218)"><path style="color:#000000;enable-background:accumulate;" d="m 15.03125,977.36218 c -1.32256,0 -2.42594,0.1954 -3.3125,0.625 l 36.25,29.56242 c 1.47139,0.7202 2.59111,0.7202 4.0625,0 l 36.25,-29.56242 c -0.86513,-0.4195 -1.91466,-0.625 -3.1875,-0.625 z m -5.75,3.75 C 9.10682,981.77258 9,982.52748 9,983.36218 l 0,38.00002 c 0,1.0284 0.13949,1.9236 0.40625,2.6874 l 25.65625,-21.8124 z m 81.46875,0 -25.8125,21.12502 25.65625,21.8124 C 90.86496,1023.2671 91,1022.3324 91,1021.2684 l 0,-38.00002 c 0,-0.7968 -0.0847,-1.5188 -0.25,-2.1562 z m -52.5,23.68742 -26.03125,22.125 c 0.80258,0.2946 1.76749,0.4376 2.875,0.4376 l 69.9375,0 c 1.05021,0 1.97623,-0.1548 2.75,-0.4376 L 61.75,1004.7996 c -2.6003,2.0957 -5.24799,4.3024 -7.84375,6.3438 -2.47705,1.2385 -5.33545,1.2385 -7.8125,0 -2.61566,-2.0456 -5.24185,-4.2297 -7.84375,-6.3438 z" fill="#000000" stroke="none" marker="none" visibility="visible" display="inline" overflow="visible"/></g><text x="0" y="115" fill="#000000" font-size="5px" font-weight="bold" font-family="'Helvetica Neue', Helvetica, Arial-Unicode, Arial, Sans-serif">Created by Orin zuu</text><text x="0" y="120" fill="#000000" font-size="5px" font-weight="bold" font-family="'Helvetica Neue', Helvetica, Arial-Unicode, Arial, Sans-serif">from the Noun Project</text></svg>