<?xml version="1.0" standalone="no"?>
<!DOCTYPE svg PUBLIC "-//W3C//DTD SVG 1.1//EN" "http://www.w3.org/Graphics/SVG/1.1/DTD/svg11.dtd" >
<svg>
<metadata>
Created by FontForge 20110222 at Fri Feb 17 12:08:23 2012
 By www-data
Copyleft 2002, 2003, 2005, 2008, 2009, 2010 Free Software Foundation.
</metadata>
<defs>
<font id="FreeSerifItalic" horiz-adv-x="500" >
  <font-face 
    font-family="FreeSerif"
    font-weight="400"
    font-style="italic"
    font-stretch="normal"
    units-per-em="1000"
    panose-1="2 2 6 3 5 4 5 9 3 4"
    ascent="800"
    descent="-200"
    x-height="428"
    cap-height="653"
    bbox="-168 -259 1053 900"
    underline-thickness="50"
    underline-position="-100"
    slope="-15.5"
    unicode-range="U+0020-2122"
  />
    <missing-glyph />
    <glyph glyph-name="space" unicode=" " horiz-adv-x="250" 
 />
    <glyph glyph-name="exclam" unicode="!" horiz-adv-x="333" 
d="M120 181q27 125 58 289q25 131 37.5 164t46.5 33q40 0 40 -51q0 -23 -7.5 -46.5t-22 -54.5t-52.5 -123.5t-83 -214.5zM91 95q22 0 38 -16t16 -38q0 -21 -16.5 -36.5t-38.5 -15.5t-36.5 15.5t-14.5 38.5q0 20 16 36t36 16z" />
    <glyph glyph-name="quotedbl" unicode="&#x22;" horiz-adv-x="420" 
d="M323 421q13 160 21 191q21 50 56 54q13 0 22.5 -8.5t9.5 -20.5q0 -25 -88 -216h-21zM144 421q13 163 22 196q20 46 56 49q13 0 22 -8.5t9 -20.5q0 -25 -88 -216h-21z" />
    <glyph glyph-name="numbersign" unicode="#" 
d="M465 267l-11 -54h-105l-79 -213h-62l80 213h-130l-79 -213h-62l80 213h-95l11 54h105l54 143h-96l11 54h105l80 212h61l-80 -212h130l80 212h61l-80 -212h96l-11 -54h-105l-54 -143h95zM363 410h-130l-54 -143h130z" />
    <glyph glyph-name="dollar" unicode="$" 
d="M258 329q-65 47 -100 89t-35 95q0 39 20 72.5t55 53.5q30 18 58 23.5t85 5.5l17 63h34l-16 -68q74 -17 121 -51l-28 -114l-15 2q-2 56 -20.5 85.5t-64.5 47.5l-56 -237q88 -68 115 -107.5t27 -98.5q0 -180 -240 -190l-21 -89h-35l22 91q-94 18 -150 65l27 123l16 3
q8 -79 32.5 -113t82.5 -48zM336 641q-135 0 -135 -103q0 -34 17.5 -59t63.5 -59zM289 306l-68 -281q159 12 159 137q0 42 -18 70.5t-73 73.5z" />
    <glyph glyph-name="percent" unicode="%" horiz-adv-x="833" 
d="M790 263q0 -91 -56.5 -177t-145.5 -86q-57 0 -88.5 35.5t-31.5 100.5q0 87 67.5 161t147.5 74q50 0 78.5 -29t28.5 -79zM605 30q63 0 111.5 77.5t48.5 151.5q0 33 -21 56.5t-50 23.5q-44 0 -80.5 -49.5t-53 -103t-16.5 -85.5q0 -71 61 -71zM403 541q0 -49 -24.5 -106
t-73.5 -101.5t-107 -44.5q-50 0 -84.5 37.5t-34.5 92.5q0 92 67.5 167.5t150.5 75.5q43 0 68 -21l18 -16q19 -17 69 -17t86.5 15.5t74.5 52.5h40l-386 -689h-47l350 626q-55 -30 -112 -30q-37 0 -62 10q1 -3 1 -6q6 -25 6 -46zM368 600q-33 9 -47.5 20.5t-19.5 11.5
q-47 0 -96.5 -83t-49.5 -163q0 -29 16 -46t43 -17q61 0 112 70.5t51 155.5q0 23 -9 51z" />
    <glyph glyph-name="ampersand" unicode="&#x26;" horiz-adv-x="778" 
d="M586 572q0 -89 -172 -175q38 -162 87 -237q47 57 63 85t16 54q0 16 -10.5 23t-39.5 9v19h185v-17q-29 -4 -43.5 -10.5t-22.5 -22.5q-25 -52 -129 -175q30 -50 58.5 -72t63.5 -22q30 0 70 30l11 -11q-32 -37 -62 -52.5t-67 -15.5q-75 0 -137 79q-77 -49 -114.5 -64
t-84.5 -15q-83 0 -132.5 42.5t-49.5 115.5q0 26 9 50.5t20 42.5t33.5 37.5t37.5 30.5t44 26t40 20.5t40.5 17.5t30.5 13q0 7 -3.5 39t-3.5 43q0 91 45 148.5t115 57.5q43 0 72.5 -27t29.5 -67zM333 345q-75 -28 -119 -77.5t-44 -103.5q0 -55 36.5 -92.5t91.5 -37.5
q73 0 140 56q-51 64 -105 255zM410 428q64 40 85.5 70.5t21.5 78.5q0 30 -10.5 43.5t-34.5 13.5q-67 0 -67 -130q0 -38 5 -76z" />
    <glyph glyph-name="quotesingle" unicode="'" horiz-adv-x="214" 
d="M132 421q13 160 21 191q21 50 56 54q13 0 22.5 -8.5t9.5 -20.5q0 -25 -88 -216h-21z" />
    <glyph glyph-name="parenleft" unicode="(" horiz-adv-x="333" 
d="M141 -181q-53 97 -76 176t-23 185q0 90 24.5 169t68.5 139.5t75.5 94t75.5 72.5q11 10 16 14l13 -15q-49 -52 -77 -93.5t-52 -100.5q-75 -181 -75 -375q0 -72 10.5 -128t37.5 -132z" />
    <glyph glyph-name="parenright" unicode=")" horiz-adv-x="333" 
d="M190 669q50 -90 74.5 -174t24.5 -191q0 -146 -65 -258.5t-195 -225.5l-13 15q82 86 120 171q37 80 60.5 190t23.5 206q0 145 -49 262z" />
    <glyph glyph-name="asterisk" unicode="*" 
d="M346 627q0 -14 -13.5 -56.5t-13.5 -70.5v-27q38 26 66.5 54.5l41.5 41.5t27 13q17 0 27.5 -10.5t10.5 -26.5q0 -19 -12.5 -28t-31 -11.5t-53.5 -14.5t-67 -32l37 -19q20 -11 55 -17.5t53.5 -15t18.5 -29.5q0 -16 -11 -27.5t-27 -11.5q-13 0 -30 16.5t-45 44.5t-60 46
q1 -61 14.5 -102t13.5 -49q0 -17 -11 -28.5t-28 -11.5q-15 0 -25 11t-10 27q0 12 14.5 53.5t14.5 70.5q0 12 -2 29q-4 -4 -16.5 -10.5t-30.5 -22t-40 -42.5q-25 -31 -50 -31q-14 0 -24.5 11t-10.5 26q0 18 13 27t32.5 12.5t54.5 14.5t66 30l-12 7q-31 20 -72.5 27.5
t-61.5 15.5t-20 35q0 15 10 25t25 10q19 0 31 -13t38 -40.5t69 -51.5q0 52 -13 97t-13 53q0 40 35 40q16 0 26 -11t10 -28z" />
    <glyph glyph-name="plus" unicode="+" horiz-adv-x="675" 
d="M305 286v220h66v-220h219v-66h-219v-220h-66v220h-219v66h219z" />
    <glyph glyph-name="comma" unicode="," horiz-adv-x="250" 
d="M71 -23q0 13 -22.5 34.5t-22.5 42.5q0 20 14.5 33.5t36.5 13.5q25 0 41.5 -20.5t16.5 -50.5q0 -86 -130 -159l-9 17q75 50 75 89z" />
    <glyph glyph-name="hyphen" unicode="-" horiz-adv-x="333" 
d="M282 255l-13 -63h-220l14 63h219z" />
    <glyph glyph-name="period" unicode="." horiz-adv-x="250" 
d="M82 100q23 0 39.5 -17t16.5 -40q0 -22 -17 -38t-41 -16q-21 0 -37 16t-16 38q0 23 16.5 40t38.5 17z" />
    <glyph glyph-name="slash" unicode="/" horiz-adv-x="278" 
d="M313 666h73l-378 -684h-73z" />
    <glyph glyph-name="zero" unicode="0" 
d="M497 423q0 -89 -37 -187t-109 -170.5t-158 -72.5q-73 0 -117 60.5t-44 159.5q0 115 44 223t116 174t149 66q73 0 114.5 -67.5t41.5 -185.5zM197 21q47 0 90 51.5t71 128.5t44 163t16 158q0 60 -22 93t-62 33q-53 0 -98 -62t-70.5 -148t-40 -163t-14.5 -119
q0 -64 22.5 -99.5t63.5 -35.5z" />
    <glyph glyph-name="one" unicode="1" 
d="M49 0v14q60 5 82.5 16t29.5 38l138 492q7 25 7 34q0 14 -9.5 22.5t-26.5 8.5h-2l-57 -2v15q4 1 9.5 2t8 1.5t3.5 0.5l172 34q5 0 5 -7t-6 -29l-143 -519q0 -2 -9 -33t-9 -41q0 -32 70 -32h16v-15h-279z" />
    <glyph glyph-name="two" unicode="2" 
d="M80 516q65 160 210 160q68 0 115 -49t47 -121q0 -49 -30.5 -97t-118.5 -136l-192 -192v-5h190q41 0 61 13t38 50l17 -7l-50 -132h-355v17l210 224q144 153 144 240q0 52 -36 87t-89 35q-86 0 -140 -94z" />
    <glyph glyph-name="three" unicode="3" 
d="M140 377q239 39 239 166q0 41 -24.5 66t-64.5 25q-61 0 -112 -67l-16 5q25 48 68.5 76t95.5 28q60 0 100 -36t40 -91q0 -51 -32.5 -82t-123.5 -66v-3q96 -44 96 -149q0 -104 -77 -180t-202 -76q-112 0 -112 59q0 39 44 39q25 0 67 -30t69 -30q54 0 92.5 45.5t38.5 118.5
q0 94 -47 130t-139 36v16z" />
    <glyph glyph-name="four" unicode="4" 
d="M453 241l-14 -65h-100l-46 -176h-79l49 178h-262l20 67l417 431h41l-121 -435h95zM277 241l96 322h-4l-304 -318v-4h212z" />
    <glyph glyph-name="five" unicode="5" 
d="M350 242q0 41 -14 73t-32 50t-51 32.5t-53 19.5t-55 13q-10 2 -14 3v15l104 218h256l-23 -71h-230l-39 -88q61 -15 93.5 -30t60.5 -41q66 -63 66 -156q0 -119 -87 -203t-211 -84q-49 0 -77.5 15.5t-28.5 41.5q0 18 11.5 29t29.5 11q19 0 57.5 -27.5t65.5 -27.5
q68 0 119.5 62.5t51.5 144.5z" />
    <glyph glyph-name="six" unicode="6" 
d="M521 686v-16q-88 -10 -178.5 -78.5t-143.5 -163.5l4 -2q45 21 89 21q74 0 122 -49.5t48 -126.5q0 -113 -74 -195.5t-175 -82.5q-83 0 -133 57.5t-50 153.5q0 107 54.5 207.5t149.5 171.5q65 48 126 70t161 33zM203 19q47 0 83 32.5t53.5 79.5t25.5 86.5t8 66.5
q0 58 -31 92.5t-83 34.5q-67 0 -107 -66q-20 -33 -33 -89t-13 -106q0 -62 25.5 -96.5t71.5 -34.5z" />
    <glyph glyph-name="seven" unicode="7" 
d="M537 656l-388 -664h-70l367 598l-2 3h-222q-43 0 -70 -14.5t-63 -57.5l-14 9l81 136h375z" />
    <glyph glyph-name="eight" unicode="8" 
d="M229 -7q-90 0 -144.5 47t-54.5 121q0 66 50 117t145 82q-50 55 -68.5 90.5t-18.5 75.5q0 67 50 108.5t130 41.5q76 0 125.5 -39.5t49.5 -101.5q0 -53 -38 -88.5t-126 -64.5q64 -66 89.5 -112.5t25.5 -96.5q0 -77 -61.5 -128.5t-153.5 -51.5zM247 344q-20 -8 -40.5 -20
t-47.5 -34.5t-44 -57.5t-17 -77q0 -61 38 -100.5t97 -39.5t97.5 39.5t38.5 100.5q0 42 -19.5 72t-102.5 117zM311 399l33 16q81 42 81 120q0 53 -29.5 85.5t-77.5 32.5q-47 0 -74.5 -30.5t-27.5 -82.5q0 -32 18.5 -59.5t76.5 -81.5z" />
    <glyph glyph-name="nine" unicode="9" 
d="M23 -17v18q67 14 128.5 50.5t101.5 79.5t65 79.5t34 61.5l-4 2q-71 -45 -129 -45q-66 0 -108 50.5t-42 128.5q0 105 73.5 186.5t168.5 81.5q82 0 131.5 -60t49.5 -158q0 -101 -48.5 -196.5t-135.5 -163.5q-62 -49 -123 -73.5t-162 -41.5zM318 650q-38 0 -68.5 -20.5
t-47 -49.5t-27.5 -64t-14.5 -60t-3.5 -42q0 -66 26.5 -102.5t73.5 -36.5q62 0 105 43q22 22 38.5 81.5t16.5 118.5q0 62 -26 97t-73 35z" />
    <glyph glyph-name="colon" unicode=":" horiz-adv-x="333" 
d="M106 100q22 0 38.5 -17t16.5 -40t-16.5 -38.5t-40.5 -15.5q-22 0 -38 16t-16 38q0 23 16.5 40t39.5 17zM205 441q23 0 39.5 -16.5t16.5 -40.5q0 -23 -16.5 -38.5t-40.5 -15.5q-22 0 -38 16t-16 38q0 24 16 40.5t39 16.5z" />
    <glyph glyph-name="semicolon" unicode=";" horiz-adv-x="333" 
d="M102 -23q0 13 -22.5 34.5t-22.5 42.5q0 20 14.5 33.5t36.5 13.5q25 0 41.5 -20.5t16.5 -50.5q0 -86 -130 -159l-9 17q75 50 75 89zM205 441q23 0 39.5 -16.5t16.5 -40.5q0 -23 -16.5 -38.5t-40.5 -15.5q-22 0 -38 16t-16 38q0 24 16 40.5t39 16.5z" />
    <glyph glyph-name="less" unicode="&#x3c;" horiz-adv-x="675" 
d="M592 -10l-508 230v66l508 230v-72l-420 -191l420 -191v-72z" />
    <glyph glyph-name="equal" unicode="=" horiz-adv-x="675" 
d="M590 386v-66h-504v66h504zM590 186v-66h-504v66h504z" />
    <glyph glyph-name="greater" unicode="&#x3e;" horiz-adv-x="675" 
d="M84 -10v72l420 191l-420 191v72l508 -230v-66z" />
    <glyph glyph-name="question" unicode="?" 
d="M248 594q0 -10 7.5 -26.5t7.5 -25.5q0 -15 -11.5 -25t-28.5 -10q-18 0 -28.5 13t-10.5 35q0 48 39 78.5t101 30.5q67 0 107.5 -35.5t40.5 -93.5q0 -39 -22 -73t-55 -61t-67.5 -54t-64 -64.5t-40.5 -79.5l-7 -29l-17 2q13 75 31 110.5t81 105.5q49 55 68 91t19 74
q0 41 -21 63t-59 22q-32 0 -51 -13t-19 -35zM184 93q22 0 37.5 -15.5t15.5 -37.5q0 -20 -16 -36t-36 -16q-22 0 -37.5 15t-15.5 37t15 37.5t37 15.5z" />
    <glyph glyph-name="at" unicode="@" horiz-adv-x="920" 
d="M321 250q0 53 22 109t68.5 98.5t104.5 42.5q26 0 40.5 -10t30.5 -41l10 37h69l-65 -252q-3 -10 -3 -21q0 -42 37 -42q58 0 94.5 64.5t36.5 131.5q0 110 -84 189t-201 79q-122 0 -201 -91t-79 -231q0 -128 82.5 -210t210.5 -82q87 0 192 47l12 -29q-70 -33 -116 -45
t-100 -12q-153 0 -258.5 97.5t-105.5 239.5q0 145 105.5 246t257.5 101q137 0 231 -84t94 -206q0 -96 -55 -167t-129 -71q-35 0 -60 20t-29 52q-57 -71 -123 -71q-38 0 -63.5 32t-25.5 79zM570 400q0 30 -13 43t-30 13q-43 0 -89 -56t-46 -135q0 -39 15.5 -61.5t43.5 -22.5
q47 0 83 74t36 145z" />
    <glyph glyph-name="A" unicode="A" horiz-adv-x="611" 
d="M564 16v-16h-246v16q48 5 63 15t15 38q0 8 -2 26l-20 131h-220l-57 -113q-20 -40 -20 -62q0 -19 10.5 -25t48.5 -10v-16h-187v16q31 6 51.5 30t77.5 122l290 500h26l94 -566q10 -55 22 -68.5t54 -17.5zM175 262h194l-44 260z" />
    <glyph glyph-name="B" unicode="B" horiz-adv-x="611" 
d="M413 351q29 -12 47 -22.5t38.5 -28t30.5 -42.5t10 -58q0 -89 -73.5 -144.5t-191.5 -55.5h-282v16q43 8 56 19.5t25 54.5l123 442q11 38 11 64q0 21 -15.5 29t-61.5 12v16h258q97 0 148.5 -38t51.5 -109q0 -115 -168 -153q-5 -2 -7 -2zM238 331q-17 -67 -32.5 -120
t-21.5 -72t-9.5 -35t-3.5 -32q0 -42 64 -42q91 0 143.5 46.5t52.5 127.5q0 41 -17.5 71.5t-48.5 43.5q-30 12 -127 12zM313 595l-65 -232q126 0 172 27q67 37 67 125q0 55 -28.5 81.5t-88.5 26.5q-29 0 -40.5 -5.5t-16.5 -22.5z" />
    <glyph glyph-name="C" unicode="C" horiz-adv-x="667" 
d="M472 666q38 0 93.5 -12t64.5 -12q27 0 38 22h21l-37 -199l-18 3q-15 162 -153 162q-102 0 -177 -77q-59 -61 -92.5 -146.5t-33.5 -174.5q0 -97 46 -151t129 -54q61 0 111.5 26t118.5 92l17 -14q-68 -79 -132 -114t-141 -35q-115 0 -188 73t-73 188q0 109 56.5 207
t151 157t198.5 59z" />
    <glyph glyph-name="D" unicode="D" horiz-adv-x="722" 
d="M700 384q0 -165 -126.5 -274.5t-328.5 -109.5h-253v16q43 8 56 19.5t25 54.5l123 442q11 39 11 64q0 20 -15.5 28.5t-61.5 12.5v16h278q134 0 213 -73t79 -196zM589 408q0 38 -8.5 71.5t-30 68t-66.5 55t-110 20.5q-30 0 -43.5 -6.5t-17.5 -22.5l-121 -432
q-22 -78 -22 -95q0 -37 65 -37q159 0 256.5 104t97.5 274z" />
    <glyph glyph-name="E" unicode="E" horiz-adv-x="604" 
d="M249 33q70 0 115.5 7.5t79 28t52 40.5t49.5 61l16 -8l-62 -162h-507v16q42 8 55.5 20t25.5 54l123 442q11 40 11 64q0 20 -15.5 28.5t-61.5 12.5v16h497l-31 -153l-21 2q2 34 2 45q0 45 -37 59t-155 14q-42 0 -55 -4.5t-18 -21.5l-66 -233q70 2 79 2q68 3 89 17t49 78
l18 -4l-68 -232l-20 5q7 31 7 52q0 26 -15.5 36t-61.5 10h-8q-25 0 -78 3q-18 -67 -33.5 -120.5t-21.5 -72.5t-9.5 -35.5t-3.5 -32.5q0 -34 80 -34z" />
    <glyph glyph-name="F" unicode="F" horiz-adv-x="611" 
d="M397 279q0 31 -15.5 38.5t-61.5 7.5q-26 0 -81 3l-62 -223q-9 -33 -9 -45q0 -23 16.5 -32.5t59.5 -11.5v-16h-252v16q43 6 56 17.5t26 56.5l123 442q11 38 11 64q0 22 -14 29t-63 12v16h498l-32 -153l-21 2q3 32 3 43q0 46 -39 60.5t-165 14.5q-31 0 -43.5 -5.5
t-17.5 -20.5l-66 -233q50 1 71.5 1t48.5 4.5t35 8t22 16.5t20 24.5t19 38.5l18 -5l-76 -234l-17 5q8 41 8 59z" />
    <glyph glyph-name="G" unicode="G" horiz-adv-x="722" 
d="M455 666q53 0 110.5 -17t67.5 -17q36 0 60 34l15 -4l-49 -197l-18 3q-9 81 -55.5 122.5t-122.5 41.5q-57 0 -105.5 -23t-80 -61.5t-55 -83t-36 -92t-18.5 -84.5t-6 -64q0 -98 52.5 -151.5t149.5 -53.5q22 0 40.5 3.5t31 8t22.5 14t16 16.5t11.5 20t8 20.5t6.5 22.5t6 21
q28 94 28 124q0 27 -49 31q-2 0 -6.5 0.5t-11 1.5t-11.5 1v16h266v-16q-49 -3 -67.5 -16.5t-29.5 -55.5l-49 -187q-111 -62 -237 -62q-129 0 -208 76t-79 188q0 165 122.5 292.5t280.5 127.5z" />
    <glyph glyph-name="H" unicode="H" horiz-adv-x="722" 
d="M767 653v-16q-43 -8 -56.5 -19.5t-25.5 -54.5l-132 -481q-3 -12 -3 -24q0 -21 15 -29.5t63 -12.5v-16h-273v16q49 5 70 20t31 54l65 236h-285l-66 -244q-3 -10 -3 -22q0 -22 13 -30t58 -14v-16h-246v16q43 8 56 19.5t25 54.5l123 442q11 39 11 62q0 22 -15 30t-62 13v16
h273v-16q-45 -3 -68 -19.5t-33 -54.5l-54 -195h285l46 164q11 39 11 62q0 21 -13.5 29.5t-56.5 13.5v16h247z" />
    <glyph glyph-name="I" unicode="I" horiz-adv-x="339" 
d="M-8 0v16q43 8 56 19.5t25 54.5l123 442q11 39 11 62q0 21 -13.5 29.5t-56.5 13.5v16h247v-16q-44 -8 -57 -19.5t-25 -54.5l-123 -443q-11 -39 -11 -63q0 -21 12.5 -28.5t55.5 -12.5v-16h-244z" />
    <glyph glyph-name="J" unicode="J" horiz-adv-x="444" 
d="M491 653v-16q-43 -6 -56 -17.5t-26 -56.5l-103 -371q-24 -88 -50 -128q-53 -82 -145 -82q-52 0 -84.5 24.5t-32.5 63.5q0 24 13 39t33 15q19 0 33.5 -14t14.5 -33q0 -3 -0.5 -12.5t-0.5 -11.5q0 -40 35 -40q34 0 49 54l131 465q12 42 12 64q0 20 -15 28.5t-62 12.5v16
h254z" />
    <glyph glyph-name="K" unicode="K" horiz-adv-x="652" 
d="M707 653v-16q-35 -6 -75 -36l-300 -226l174 -303q21 -35 35.5 -43t61.5 -13v-16h-275v16q20 3 29 3q46 4 46 26q0 30 -38 95l-121 208l-68 -249q-8 -27 -8 -39q0 -23 12.5 -31t59.5 -13v-16h-248v16q44 7 56.5 18t25.5 56l123 442q11 39 11 62q0 22 -15 30t-62 13v16h273
v-16q-44 -3 -67.5 -20t-33.5 -54l-53 -194l152 106q66 46 105 84t39 56q0 16 -34 19q-2 0 -11.5 1t-15.5 2v16h222z" />
    <glyph glyph-name="L" unicode="L" horiz-adv-x="556" 
d="M270 36q122 0 172.5 27.5t96.5 121.5l20 -6l-58 -179h-509v16q43 8 56 19.5t25 54.5l123 442q11 39 11 62q0 22 -15 30t-62 13v16h273v-16q-45 -3 -68 -19.5t-33 -54.5l-123 -443q-10 -38 -10 -50q0 -19 22 -26.5t79 -7.5z" />
    <glyph glyph-name="M" unicode="M" horiz-adv-x="828" 
d="M873 653v-16q-44 -7 -56.5 -18t-25.5 -56l-123 -443q-11 -38 -11 -61t13 -31t64 -12v-16h-273v16q49 5 69.5 20t31.5 55l129 470l-377 -561h-17l-61 546l-118 -433q-9 -31 -9 -53q0 -21 16.5 -31t54.5 -13v-16h-198v16q39 5 57.5 28.5t40.5 101.5l106 372q4 17 10 35
t9 29t3 18q0 33 -74 37v16h181l55 -493l336 493h167z" />
    <glyph glyph-name="N" unicode="N" horiz-adv-x="657" 
d="M589 534q0 2 5.5 19t5.5 33q0 27 -13.5 37t-56.5 14v16h199v-16q-47 -10 -61.5 -31t-42.5 -118l-144 -503h-18l-230 550l-114 -422q-9 -31 -9 -54q0 -21 16 -30.5t54 -12.5v-16h-198v16q43 6 59 29t44 119l119 417q-13 29 -32 41t-54 15v16h161l208 -499z" />
    <glyph glyph-name="O" unicode="O" horiz-adv-x="722" 
d="M60 221q0 88 40 172.5t101.5 143t134 94t138.5 35.5q97 0 161 -66.5t64 -167.5q0 -71 -31.5 -149.5t-85.5 -145.5t-134.5 -111t-169.5 -44q-95 0 -156.5 67t-61.5 172zM295 15q64 0 122 48t95.5 119.5t59.5 151.5t22 147q0 70 -35 111t-94 41q-108 0 -190 -119
q-45 -65 -77.5 -162.5t-32.5 -167.5q0 -81 33.5 -125t96.5 -44z" />
    <glyph glyph-name="P" unicode="P" horiz-adv-x="603" 
d="M597 504q0 -34 -12.5 -66t-41 -63.5t-84.5 -50.5t-133 -19q-59 0 -92 8l-53 -193q-12 -43 -12 -58q0 -25 10.5 -32t57.5 -14v-16h-245v16q43 6 56 17.5t26 56.5l118 425q17 59 17 80q0 20 -14.5 28.5t-56.5 13.5v16h248q102 0 156.5 -38.5t54.5 -110.5zM494 504
q0 56 -28.5 87.5t-105.5 31.5q-38 0 -46 -28l-71 -248q34 -5 52 -5q96 0 147.5 35t51.5 127z" />
    <glyph glyph-name="Q" unicode="Q" horiz-adv-x="722" 
d="M60 221q0 88 40.5 172.5t102 143t133 94t134.5 35.5q100 0 164.5 -66t64.5 -167q0 -118 -69 -229.5t-180 -173.5q-71 -40 -171 -46l-54 -57h25q1 0 4 1h3q13 0 105 -21.5t122 -21.5q54 0 90.5 16.5t78.5 60.5l15 -11q-44 -61 -109 -97.5t-130 -36.5q-47 0 -134 22.5
t-111 22.5q-59 0 -115 -31l-10 15q56 39 81 59.5t96 82.5q-57 13 -92 41q-84 65 -84 192zM293 17q66 0 125 48.5t96 120.5t58.5 150.5t21.5 143.5q0 71 -34.5 112t-94.5 41q-108 0 -190 -119q-46 -65 -78 -162t-32 -169q0 -79 33.5 -122.5t94.5 -43.5z" />
    <glyph glyph-name="R" unicode="R" horiz-adv-x="616" 
d="M593 509q0 -135 -191 -175q-4 -1 -6 -1l93 -245q14 -39 32 -54.5t51 -17.5v-16h-148l-123 324l-65 5l-56 -209q-12 -47 -12 -58q0 -25 11 -32.5t57 -13.5v-16h-244v16q43 7 56 18.5t25 55.5l123 442q12 46 12 63q0 6 -1 10.5t-3.5 8t-5 6.5t-7.5 5t-8 3.5t-10.5 3
t-10.5 2t-12.5 1.5t-12.5 2v16h248q101 0 154.5 -37t53.5 -107zM313 595l-65 -229q30 -5 51 -5q189 0 189 150q0 112 -124 112q-24 0 -35.5 -6t-15.5 -22z" />
    <glyph glyph-name="S" unicode="S" 
d="M309 666q41 0 81.5 -12.5t49.5 -12.5q17 0 26 5t19 21h23l-40 -199l-18 3q-3 79 -27.5 120.5t-93.5 41.5q-51 0 -80.5 -27.5t-29.5 -74.5q0 -37 15.5 -61.5t83.5 -92.5t90.5 -107t22.5 -88q0 -85 -58 -142.5t-144 -57.5q-38 0 -90.5 18t-65.5 18q-28 0 -38 -33h-18
l34 223l20 -2q-2 -14 -2 -23q0 -71 42 -118.5t104 -47.5q55 0 92 38.5t37 94.5q0 36 -22 71.5t-53 66t-62.5 61.5t-53.5 70t-22 80q0 73 50 120t128 47z" />
    <glyph glyph-name="T" unicode="T" horiz-adv-x="556" 
d="M633 653l-44 -163l-17 2q3 26 3 45q0 42 -25 61.5t-79 19.5h-55l-139 -498q-12 -45 -12 -59q0 -22 11 -31t41 -11q3 0 16 -1t22 -2v-16h-290v16q50 4 73 19.5t33 54.5l144 528h-21q-101 0 -140 -22.5t-77 -100.5l-18 4l42 154h532z" />
    <glyph glyph-name="U" unicode="U" horiz-adv-x="722" 
d="M637 591q0 24 -17 33.5t-54 12.5v16h199v-16q-21 -5 -31.5 -9.5t-20.5 -11t-17.5 -24.5t-14.5 -39t-20 -65l-83 -285q-33 -112 -96.5 -166.5t-161.5 -54.5q-95 0 -156.5 46.5t-61.5 118.5q0 57 43 212l53 192q7 30 7 45q0 22 -14 29.5t-64 11.5v16h273v-16
q-20 -2 -34.5 -5.5t-25 -11t-17 -12t-12.5 -17.5t-8 -18t-7 -23t-6 -23q-98 -338 -98 -386q0 -52 39 -85t101 -33q43 0 79 17.5t57.5 40.5t40 60.5t26.5 61t17.5 60t10.5 41.5q74 261 74 287z" />
    <glyph glyph-name="V" unicode="V" horiz-adv-x="611" 
d="M688 653v-16q-32 -1 -56 -40l-373 -615h-19l-85 520q-16 94 -26.5 112t-52.5 23v16h241v-16q-47 -5 -62 -15t-15 -36q0 -10 1 -15l66 -443l206 356q52 90 52 119q0 27 -63 34v16h186z" />
    <glyph glyph-name="W" unicode="W" horiz-adv-x="833" 
d="M906 653v-16q-29 -9 -42 -21.5t-33 -50.5l-303 -583h-20l-50 454h-5l-222 -454h-19l-62 517q-2 13 -4.5 35t-3.5 29.5t-4 22t-6 18.5t-8 12t-12.5 10.5t-17 5.5t-23.5 5v16h236v-16q-46 -5 -59.5 -15.5t-13.5 -39.5q0 -9 1 -14l44 -406l172 348l-9 69q-5 37 -18 46.5
t-57 11.5v16h238v-16q-40 -4 -54 -16t-14 -43l41 -416l187 368q21 42 21 67q0 21 -12.5 28.5t-52.5 11.5v16h185z" />
    <glyph glyph-name="X" unicode="X" horiz-adv-x="611" 
d="M655 653v-16q-60 -19 -125 -95l-169 -194l102 -258q19 -45 35 -56.5t69 -17.5v-16h-273v16q50 4 63 10.5t13 28.5q0 21 -11 49l-67 165l-151 -172q-21 -24 -21 -47q0 -19 14.5 -26.5t50.5 -7.5v-16h-214v16q19 4 35 12.5t30 19t39 37.5t46 51t66.5 77t86.5 100l-106 263
q-14 35 -31.5 46t-60.5 15v16h264v-16q-41 -5 -56 -13.5t-15 -27.5q0 -21 15 -56l59 -147l145 167q20 23 20 41q0 17 -12 24t-49 12v16h208z" />
    <glyph glyph-name="Y" unicode="Y" horiz-adv-x="556" 
d="M278 56q0 -23 17.5 -30t71.5 -10v-16h-289v16q50 3 71.5 18.5t33.5 55.5l61 212l-77 269q-13 41 -23.5 50.5t-52.5 15.5v16h239v-16q-45 -5 -58.5 -11.5t-13.5 -24.5q0 -7 1.5 -16.5t7 -30t12 -42.5t20 -69t26.5 -96l38 46q150 175 150 213q0 17 -16.5 22.5t-52.5 8.5v16
h189v-16q-22 -10 -34 -20.5t-36 -40.5l-219 -270l-29 -101q-2 -9 -12 -41.5t-17.5 -62.5t-7.5 -45z" />
    <glyph glyph-name="Z" unicode="Z" horiz-adv-x="556" 
d="M302 617q-32 0 -59 -3.5t-45 -8.5t-34 -14t-25 -15.5t-17.5 -19t-12 -19t-9 -19.5t-7.5 -16l-19 5l46 146h486v-14l-483 -603h161q54 0 92.5 6.5t61.5 14.5t42 28.5t28 36t26 49.5l19 -3l-54 -168h-505v14l479 603h-171z" />
    <glyph glyph-name="bracketleft" unicode="[" horiz-adv-x="389" 
d="M384 636h-62q-22 0 -32 -7.5t-15 -27.5l-160 -678q-4 -16 -4 -21q0 -28 49 -28h56l-7 -27h-188l197 816h173z" />
    <glyph glyph-name="backslash" unicode="\" horiz-adv-x="278" 
d="M-41 666h72l288 -684h-71z" />
    <glyph glyph-name="bracketright" unicode="]" horiz-adv-x="389" 
d="M19 -126h62q23 0 32 7t14 29l161 678q4 16 4 21q0 27 -49 27h-57l7 27h189l-197 -816h-173z" />
    <glyph glyph-name="asciicircum" unicode="^" horiz-adv-x="422" 
d="M68 301h-68l181 365h60l181 -365h-68l-143 289z" />
    <glyph glyph-name="underscore" unicode="_" 
d="M500 -125h-500v50h500v-50z" />
    <glyph glyph-name="grave" unicode="`" horiz-adv-x="333" 
 />
    <glyph glyph-name="a" unicode="a" 
d="M384 41q4 0 10 3.5t15.5 11.5t15.5 14.5t19.5 20l19.5 19.5l12 -10q-55 -68 -82 -89t-57 -21q-40 0 -40 41q0 25 23 115q-66 -93 -107 -125t-94 -32q-48 0 -75 29.5t-27 81.5q0 77 43.5 157t111 132t131.5 52q67 0 80 -58l11 48l3 3l61 7l7 -3q-1 -4 -6 -21
q-89 -326 -89 -363q0 -13 14 -13zM365 358q0 28 -16.5 44.5t-44.5 16.5q-55 0 -104.5 -64t-74 -133.5t-24.5 -108.5q0 -34 16 -54.5t42 -20.5q47 0 96 54.5t79.5 129.5t30.5 136z" />
    <glyph glyph-name="b" unicode="b" 
d="M110 643v17q75 9 153 23l5 -5l-104 -388q53 83 97 117t96 34q50 0 83 -34t33 -86q0 -77 -47.5 -154.5t-121.5 -127.5t-148 -50q-42 0 -87.5 18t-45.5 35v4l136 501q16 56 16 69q0 17 -10.5 21.5t-54.5 5.5zM155 12q51 0 97.5 36t74.5 86t44.5 97t16.5 75q0 40 -19 63
t-51 23q-45 0 -86 -42.5t-67 -101.5t-41 -114.5t-15 -87.5q0 -34 46 -34z" />
    <glyph glyph-name="c" unicode="c" horiz-adv-x="444" 
d="M315 420q-60 0 -107 -47.5t-69.5 -111t-22.5 -122.5q0 -53 24 -83.5t67 -30.5q37 0 69.5 18.5t73.5 62.5l16 -10q-45 -57 -89 -82t-100 -25q-70 0 -108.5 39.5t-38.5 110.5q0 117 89 209.5t201 92.5q45 0 75 -23t30 -58q0 -19 -14 -32.5t-34 -13.5q-39 0 -39 38
q0 10 7.5 26.5t7.5 21.5q0 20 -38 20z" />
    <glyph glyph-name="d" unicode="d" 
d="M463 111l12 -10q-81 -114 -146 -114q-19 0 -30.5 12.5t-11.5 32.5q0 29 13 89q-51 -75 -90 -103.5t-90 -28.5q-49 0 -77 30.5t-28 83.5q0 73 45.5 153t114.5 132.5t132 52.5q29 0 44 -13.5t21 -44.5l44 164q15 55 15 70q0 16 -10.5 20.5t-51.5 5.5v17q77 7 153 23l5 -5
q-67 -264 -99 -372q-65 -217 -65 -246q0 -8 5.5 -14t12.5 -6q13 0 27.5 12.5t54.5 58.5zM356 361q0 57 -49 57q-45 0 -94 -52.5t-80 -127t-31 -135.5q0 -29 16 -47.5t42 -18.5q45 0 91 49t75.5 125t29.5 150z" />
    <glyph glyph-name="e" unicode="e" horiz-adv-x="444" 
d="M358 109l12 -12q-44 -51 -99 -79.5t-108 -28.5q-59 0 -95.5 38t-36.5 99q0 73 45 147t115.5 121t140.5 47q37 0 58.5 -18t21.5 -50q0 -65 -72 -116t-184 -67l-28 -4q-10 -40 -10 -62q0 -41 25.5 -65.5t68.5 -24.5q32 0 62 15.5t84 59.5zM135 208q54 13 94.5 32t62 37
t34.5 39t16.5 35t3.5 28q0 17 -9.5 28t-25.5 11q-38 0 -86 -49.5t-73 -116.5z" />
    <glyph glyph-name="f" unicode="f" horiz-adv-x="278" 
d="M-71 -143q0 -8 -4.5 -15.5t-4.5 -11.5q0 -16 20 -16q64 0 97 162l88 420h-90l7 32h92q13 41 22.5 68t28 65t38.5 61t50 39.5t65 16.5q37 0 61.5 -18.5t24.5 -46.5q0 -16 -12.5 -28t-29.5 -12t-27 11t-10 29q0 9 5 19t5 12q0 12 -22 12q-42 0 -71 -55t-51 -173h108l-6 -32
h-109l-72 -320q-31 -138 -82 -210.5t-118 -72.5q-33 0 -56 18t-23 43q0 17 10.5 29t26.5 12t27.5 -11t11.5 -27z" />
    <glyph glyph-name="g" unicode="g" 
d="M297 441q34 0 59 -9t38 -18t17 -9h61v-39h-50q9 -30 9 -56q0 -59 -58.5 -109t-126.5 -50q-14 0 -25.5 2t-12.5 2q-10 0 -23 -15t-13 -26q0 -16 33.5 -29.5t73 -24.5t73 -42t33.5 -78q0 -65 -58 -105.5t-152 -40.5q-76 0 -121.5 31t-45.5 83q0 34 21.5 58t95.5 73
q-27 20 -27 39q0 18 16.5 36t60.5 48q-43 20 -61 44.5t-18 63.5q0 71 59 121t142 50zM148 28q-4 0 -23 -12t-40.5 -39.5t-21.5 -58.5q0 -48 33.5 -75t93.5 -27q58 0 96.5 27t38.5 67q0 15 -5 27t-17 22.5t-22 17.5t-30.5 15.5t-30.5 12t-35 11.5t-32 10q-4 2 -5 2zM234 172
q51 0 84.5 58.5t33.5 117.5q0 71 -56 71q-49 0 -85.5 -51.5t-36.5 -120.5q0 -35 16 -55t44 -20z" />
    <glyph glyph-name="h" unicode="h" 
d="M448 374q0 -32 -40.5 -167.5t-40.5 -150.5q0 -7 4.5 -12.5t11.5 -5.5q12 0 27 14.5t55 64.5l13 -12q-45 -65 -76.5 -89.5t-69.5 -24.5q-20 0 -32 11.5t-12 30.5q0 17 20 92l55 207q7 28 7 33q0 10 -8.5 17.5t-19.5 7.5q-26 0 -71 -41t-84 -100q-30 -46 -46.5 -90
t-46.5 -159h-75l135 512q24 86 24 105q0 9 -10.5 17.5t-21.5 8.5q-4 0 -5.5 -1t-3.5 -1h-26v15q76 9 157 27l5 -5l-120 -448q135 211 229 211q29 0 47.5 -18.5t18.5 -48.5z" />
    <glyph glyph-name="i" unicode="i" horiz-adv-x="278" 
d="M140 36q23 0 82 78l13 -11q-43 -63 -74 -88.5t-66 -25.5q-46 0 -46 57q0 29 22 109l48 177q9 30 9 44q0 15 -11.5 19t-51.5 5v16q46 4 160 25l3 -2l-94 -344q-10 -36 -10 -44q0 -5 5 -10t11 -5zM214 654q20 0 35 -16.5t15 -38.5q0 -21 -14.5 -36t-34.5 -15
q-22 0 -35 14.5t-13 38.5q0 23 13.5 38t33.5 15z" />
    <glyph glyph-name="j" unicode="j" horiz-adv-x="278" 
d="M109 400h-36v16q38 1 170 25l3 -2l-104 -411q-59 -235 -187 -235q-34 0 -56.5 17.5t-22.5 43.5q0 18 11.5 30t28.5 12t29 -10.5t12 -26.5q0 -11 -6.5 -19t-6.5 -13q0 -11 18 -11q30 0 50.5 39t46.5 142l72 292q16 63 16 80q0 31 -38 31zM226 654q20 0 35 -16.5t15 -38.5
q0 -21 -14.5 -36t-34.5 -15q-22 0 -35 14.5t-13 38.5q0 23 13.5 38t33.5 15z" />
    <glyph glyph-name="k" unicode="k" horiz-adv-x="444" 
d="M236 258q12 -28 32 -73q41 -95 55 -119.5t31 -24.5q21 0 45 42l15 26l15 -11q-34 -63 -57.5 -86t-53.5 -23q-16 0 -31 11.5t-44 64t-64 147.5l-42 -32l-48 -180h-75l127 483q2 10 16.5 62.5t16.5 69.5q-1 25 -59 25h-9v16q72 9 156 27l5 -5l-120 -457q49 34 117.5 93
t68.5 80q0 18 -39 18h-16v16h183v-16q-36 -2 -76 -29.5t-149 -124.5z" />
    <glyph glyph-name="l" unicode="l" horiz-adv-x="278" 
d="M132 32q16 0 30.5 14t65.5 77l13 -9q-49 -72 -81 -98.5t-71 -26.5q-49 0 -49 56q0 8 5 26l137 528q4 12 4 18q0 23 -68 23v16q72 9 156 27l5 -5l-151 -579q-1 -2 -6 -22t-5 -27q0 -18 15 -18z" />
    <glyph glyph-name="m" unicode="m" horiz-adv-x="722" 
d="M604 38q13 0 28 14.5t57 64.5l15 -12q-39 -54 -73.5 -84t-75.5 -30q-40 0 -40 46q0 13 13 66l58 230q7 25 7 35q0 8 -6 14.5t-14 6.5q-22 0 -56.5 -30.5t-71.5 -81.5q-38 -53 -59.5 -106.5t-51.5 -170.5h-75q95 353 95 364q0 25 -20 25q-26 0 -67 -38.5t-83 -102.5
q-26 -39 -43.5 -84.5t-53.5 -163.5h-75q11 43 39 143q59 208 59 229q0 22 -39 22h-25v16q98 18 160 31l3 -2l-58 -209q134 211 223 211q25 0 41 -17t16 -43q0 -30 -40 -152q78 123 133 170q48 42 89 42q25 0 42 -18t17 -45q0 -16 -3 -28l-68 -251q-10 -40 -10 -45
q0 -16 13 -16z" />
    <glyph glyph-name="n" unicode="n" 
d="M460 117l14 -13q-52 -69 -79 -91t-61 -22q-25 0 -36 13t-11 41q0 15 16 75l44 165q14 54 14 76q0 29 -24 29q-55 0 -148 -142q-33 -51 -49 -90.5t-51 -157.5h-75l96 350q2 10 2 17q0 15 -13 20.5t-51 6.5v16q101 19 162 31l3 -2l-67 -218q77 120 129.5 170t100.5 50
q29 0 47.5 -17t18.5 -44q0 -26 -9 -57l-57 -206q-14 -56 -14 -63q0 -6 5 -11t11 -5q19 0 61 53z" />
    <glyph glyph-name="o" unicode="o" 
d="M468 301q0 -66 -38.5 -137.5t-108.5 -123t-147 -51.5q-68 0 -107.5 37.5t-39.5 102.5q0 118 93 215t205 97q64 0 103.5 -39t39.5 -101zM189 10q53 0 99.5 55t71 127.5t24.5 133.5q0 43 -19.5 68.5t-51.5 25.5q-50 0 -98 -53t-76 -127t-28 -139q0 -41 21.5 -66t56.5 -25z
" />
    <glyph glyph-name="p" unicode="p" 
d="M89 404h-33l-2 15q154 22 156 22q5 0 5 -4l-32 -109q44 61 83 87t88 26q53 0 84 -33.5t31 -91.5q0 -119 -95.5 -223t-204.5 -104q-33 0 -66 17q-37 -137 -37 -166q0 -30 64 -30v-15h-205v16q13 0 21 1.5t16 6t12 10t10 18t9.5 25t9.5 36.5t11.5 47.5t15.5 62t20 76.5
q71 268 71 283q0 9 -11 18t-21 9zM379 312q0 86 -66 86q-37 0 -74.5 -32.5t-56.5 -81.5q-22 -56 -43.5 -135t-21.5 -104q0 -16 13.5 -26.5t34.5 -10.5q60 0 111.5 54t77 123t25.5 127z" />
    <glyph glyph-name="q" unicode="q" 
d="M391 -191v-18h-241v16q49 4 67 13.5t27 39.5l89 293q-67 -95 -110 -129.5t-96 -34.5q-47 0 -74.5 31.5t-27.5 84.5q0 74 45.5 153t114.5 131t133 52q31 0 48 -14t29 -48l15 47h73l-164 -577q-2 -8 -2 -12q0 -28 57 -28h17zM167 42q45 0 96 54t84 128.5t33 133.5
q0 26 -17 43.5t-42 17.5q-44 0 -94 -51t-83 -121.5t-33 -127.5q0 -35 15 -56t41 -21z" />
    <glyph glyph-name="r" unicode="r" horiz-adv-x="389" 
d="M366 340q-19 0 -27 9t-12 18t-13 9q-27 0 -78 -87q-34 -57 -55 -109t-60 -180h-76l81 292q16 58 16 74v3.5v4.5q0 28 -35 28q-10 0 -34 -5v17q44 7 155 27l3 -2l-53 -217l14 36q19 48 73.5 115.5t99.5 67.5q21 0 34 -14.5t13 -37.5q0 -49 -46 -49z" />
    <glyph glyph-name="s" unicode="s" horiz-adv-x="389" 
d="M160 -11q-20 0 -54 9.5t-50 9.5q-14 0 -24 -21h-16l20 159h16q12 -71 36.5 -103.5t65.5 -32.5q33 0 53.5 21.5t20.5 55.5q0 29 -18.5 62t-41 57.5t-41 58.5t-18.5 66q0 50 33 80t88 30q20 0 51.5 -8.5t40.5 -8.5q20 0 30 18h14l-20 -139h-16q-15 115 -92 115
q-26 0 -41 -14.5t-15 -39.5q0 -24 19 -56t42 -58.5t42 -62.5t19 -68q0 -57 -40.5 -93.5t-103.5 -36.5z" />
    <glyph glyph-name="t" unicode="t" horiz-adv-x="278" 
d="M296 428l-5 -32h-84l-88 -333q-1 -3 -1 -5q0 -20 15 -20q12 0 28 15.5t53 63.5l13 -7q-47 -70 -77 -95.5t-65 -25.5q-20 0 -34 11t-14 27q0 8 5 28t11 41.5t7 24.5l72 275h-74q-1 3 -1 6q0 10 13 17.5t33 15t53.5 34t65.5 68.5q7 9 15 9t8 -10q0 -3 -1 -5l-28 -103h80z
" />
    <glyph glyph-name="u" unicode="u" 
d="M118 376q0 14 -13.5 19t-46.5 5v14q68 8 150 27l3 -2l-91 -363q-1 -3 -1 -9q0 -25 21 -25q49 0 141 146q34 54 50.5 90.5t59.5 153.5h74l-79 -299q-19 -72 -19 -78q0 -17 11 -17q12 0 28 15t55 64l14 -9q-51 -73 -77 -95t-61 -22q-23 0 -35.5 12.5t-12.5 35.5
q0 31 45 197q-86 -144 -136 -195.5t-103 -51.5t-53 55q0 24 25 123l37 142q14 53 14 67z" />
    <glyph glyph-name="v" unicode="v" horiz-adv-x="444" 
d="M375 333q0 13 -21 33t-21 41q0 16 10 25t27 9q23 0 39.5 -17.5t16.5 -41.5q0 -28 -17.5 -71.5t-43.5 -80.5q-77 -108 -139 -178t-81 -70q-9 0 -9 35q0 43 -7 134.5t-15 143.5q-10 69 -22 89t-41 20q-19 0 -30 -1v13q35 6 61 11t36 8t18 4.5t16 1.5q16 0 32.5 -118
t22.5 -253l31 32q53 56 95 126.5t42 104.5z" />
    <glyph glyph-name="w" unicode="w" horiz-adv-x="667" 
d="M51 405q-5 0 -8.5 -0.5t-6.5 -0.5h-20v13q24 4 26 4q27 4 46 8t26.5 6.5t13.5 4t12 1.5q18 0 32.5 -120t17.5 -195l192 304q6 10 13 10t8 -14l32 -352q98 122 131.5 175t33.5 85q0 15 -21.5 36t-21.5 37q0 34 39 34q22 0 37 -14.5t15 -37.5q0 -48 -62 -149t-126.5 -179.5
t-77.5 -78.5q-5 0 -7.5 5t-3.5 25l-29 319l-89 -156q-17 -30 -35.5 -65t-29.5 -55t-21.5 -38.5t-18.5 -26.5t-14 -8q-7 0 -9 9t-4 38l-4 88q-5 139 -27 242q-5 26 -13 36t-26 10z" />
    <glyph glyph-name="x" unicode="x" horiz-adv-x="444" 
d="M334 44q5 0 9 1.5t9 6.5t10 11t16.5 20t23.5 28l14 -8q-43 -67 -68 -90.5t-54 -23.5q-24 0 -36 14t-22 53l-30 120q-89 -123 -121.5 -155t-61.5 -32q-23 0 -36.5 11.5t-13.5 30.5q0 15 10 25t24 10q12 0 31 -9.5t27 -9.5q17 0 51 48l82 117l-29 123q-10 45 -18 57t-27 12
q-10 0 -56 -11l-4 15l11 4q88 29 117 29q20 0 30.5 -18.5t21.5 -69.5l11 -55q52 80 85 111.5t66 31.5q18 0 29.5 -10.5t11.5 -26.5t-9.5 -26t-25.5 -10q-10 0 -26 8.5t-25 8.5q-29 0 -98 -121q0 -23 40 -179q10 -41 31 -41z" />
    <glyph glyph-name="y" unicode="y" horiz-adv-x="444" 
d="M15 417q116 22 143 24q11 0 43 -93.5t43 -159.5l20 -116q122 202 122 259q0 18 -27 35t-27 38q0 16 11 26.5t28 10.5q23 0 39 -16.5t16 -38.5q0 -63 -74 -206.5t-171.5 -264.5t-153.5 -121q-22 0 -36.5 12.5t-14.5 31.5q0 16 11 27.5t28 11.5q13 0 34 -14t27 -14
q24 0 76.5 65t52.5 94q0 13 -14 82t-27 117q-34 129 -54.5 163t-63.5 34q-14 0 -31 -4v17z" />
    <glyph glyph-name="z" unicode="z" horiz-adv-x="389" 
d="M269 -81q-39 0 -110.5 43t-105.5 43q-24 0 -46 -18l-9 9l310 372h-146q-35 0 -50 -11t-31 -48l-16 4l31 115h284v-11l-290 -344q45 -10 75.5 -33t42.5 -44.5t30.5 -38.5t42.5 -17q27 0 27 15q0 4 -7 19t-7 26q0 14 9.5 22.5t24.5 8.5q16 0 25.5 -10t9.5 -26
q0 -30 -28.5 -53t-65.5 -23z" />
    <glyph glyph-name="braceleft" unicode="{" horiz-adv-x="400" 
d="M51 -99q0 30 33 148t33 149q0 22 -11.5 34t-40.5 23q48 13 69 36t36 78l48 178q23 80 63.5 110t125.5 30l-3 -11q-47 -12 -70 -38.5t-39 -85.5l-45 -168q-16 -62 -40 -89t-73 -40q55 -24 55 -63q0 -24 -33 -147.5t-33 -144.5q0 -28 12 -43t41 -23l-3 -11q-69 2 -97 19.5
t-28 58.5z" />
    <glyph glyph-name="bar" unicode="|" horiz-adv-x="275" 
d="M105 -18v684h66v-684h-66z" />
    <glyph glyph-name="braceright" unicode="}" horiz-adv-x="400" 
d="M208 318q0 25 33 149t33 142q0 52 -53 67l3 11q68 -2 96.5 -20t28.5 -58q0 -29 -33 -146.5t-33 -150.5q0 -22 11.5 -34t40.5 -23q-48 -13 -69 -36t-36 -78l-48 -178q-23 -79 -64 -109.5t-125 -30.5l3 11q47 12 70 38.5t39 85.5l45 168q17 62 40.5 89t72.5 40
q-55 24 -55 63z" />
    <glyph glyph-name="asciitilde" unicode="~" horiz-adv-x="541" 
d="M163 320q53 0 114 -34t97 -34q23 0 38.5 11t35.5 40l54 -32q-34 -48 -61 -66.5t-62 -18.5q-53 0 -114 34t-97 34q-23 0 -38.5 -11t-35.5 -40l-54 32q34 48 61 66.5t62 18.5z" />
    <glyph glyph-name="nonbreakingspace" unicode="&#xa0;" horiz-adv-x="250" 
 />
    <glyph glyph-name="exclamdown" unicode="&#xa1;" horiz-adv-x="389" 
d="M241 281q-13 -60 -25.5 -120t-20 -101t-15 -80.5t-12.5 -64t-11 -47.5t-11 -35t-12 -21.5t-15.5 -13t-19.5 -3.5q-40 0 -40 51q0 25 8.5 51.5t24.5 60t53 123.5t79 204zM270 474q22 0 36.5 -15.5t14.5 -39.5q0 -20 -16 -35.5t-36 -15.5q-22 0 -38 16t-16 38
q0 21 16.5 36.5t38.5 15.5z" />
    <glyph glyph-name="cent" unicode="&#xa2;" 
d="M185 -7q-108 23 -108 147q0 63 29.5 126t92 112.5t143.5 61.5l42 120h30l-42 -120q47 -4 73.5 -24.5t26.5 -55.5q0 -20 -13.5 -33t-34.5 -13q-39 0 -39 38q0 10 7.5 26.5t7.5 21.5q0 18 -35 20l-137 -391q11 -4 24 -4q38 0 70.5 18t74.5 63l16 -10q-45 -57 -88.5 -82
t-97.5 -25q-7 0 -12 1l-47 -133h-31zM334 417q-51 -15 -87.5 -52.5t-53 -83t-23.5 -81t-7 -61.5q0 -65 39 -98z" />
    <glyph glyph-name="sterling" unicode="&#xa3;" 
d="M478 553q-20 0 -28 13.5t-8 30.5t-9.5 30.5t-30.5 13.5q-43 0 -66.5 -55t-55.5 -225h123l-7 -42h-126q-19 -81 -30.5 -114t-42.5 -101q100 -38 160 -38q41 0 79 27l10 7l11 -9q-39 -97 -142 -97q-37 0 -66.5 13t-77.5 50q-29 -37 -49.5 -50t-46.5 -13q-29 0 -47 17.5
t-18 46.5q0 30 26.5 49t67.5 19q16 0 56 -11l25 204h-113l9 42h110q10 57 26 106t43 97.5t69 77t95 28.5q41 0 67 -21t26 -55q0 -41 -39 -41zM146 73q-36 25 -60 25t-39 -12.5t-15 -32.5q0 -16 12.5 -26.5t30.5 -10.5q23 0 42.5 16t28.5 41z" />
    <glyph glyph-name="currency" unicode="&#xa4;" 
d="M-22 103l98 96q-41 59 -41 126q0 69 41 126l-98 98l50 48l96 -96q60 39 127 39q70 0 125 -39l98 96l48 -48l-96 -98q39 -59 39 -125q0 -67 -39 -127l96 -96l-48 -50l-98 98q-57 -41 -125 -41q-65 0 -127 41l-96 -98zM253 476q-62 0 -106 -43.5t-44 -105.5
q0 -64 43 -108.5t105 -44.5q61 0 103.5 44t42.5 108q0 62 -42.5 106t-101.5 44z" />
    <glyph glyph-name="yen" unicode="&#xa5;" 
d="M483 606q0 17 -16.5 22.5t-52.5 8.5v16h189v-16q-24 -11 -36.5 -21t-36.5 -40l-181 -224h151l-12 -40h-170l-6 -8l-24 -82h180l-12 -40h-180q-31 -98 -31 -125q0 -25 17.5 -31.5t74.5 -9.5v-16h-285l4 16q48 3 73 19.5t36 54.5l27 92h-165l12 40h164l23 80l-3 10h-163
l12 40h140l-63 219q-13 41 -26 50.5t-62 15.5v16h239v-16q-48 -5 -61.5 -11t-13.5 -25q0 -20 39 -154l29 -100q190 217 190 259z" />
    <glyph glyph-name="brokenbar" unicode="&#xa6;" horiz-adv-x="275" 
d="M105 -18v275h66v-275h-66zM105 391v275h66v-275h-66z" />
    <glyph glyph-name="section" unicode="&#xa7;" 
d="M156 -41q0 -17 -6.5 -27.5t-14.5 -14t-14.5 -8.5t-6.5 -13q0 -15 21.5 -26t49.5 -11q45 0 73.5 25t28.5 65t-50 97l-76 87q-71 80 -71 153q0 50 31.5 86.5t74.5 36.5q26 0 53 -11l2 3q-38 46 -52.5 76.5t-14.5 63.5q0 55 41.5 90t105.5 35q57 0 93.5 -28t36.5 -71
q0 -25 -14 -40t-38 -15q-20 0 -33 12.5t-13 32.5q0 19 17 35t17 22q0 13 -17.5 22t-42.5 9q-43 0 -67.5 -22.5t-24.5 -60.5q0 -41 26 -72l123 -150q41 -50 41 -114q0 -56 -32.5 -91t-85.5 -35q-16 0 -33 7l-2 -3q40 -51 51.5 -75t11.5 -54q0 -58 -45 -97.5t-111 -39.5
q-57 0 -96.5 31t-39.5 77q0 26 15 41t41 15q22 0 34.5 -11.5t12.5 -31.5zM377 192q0 53 -58.5 124.5t-105.5 71.5q-27 0 -46.5 -19t-19.5 -47q0 -53 60.5 -127t104.5 -74q26 0 45.5 21t19.5 50z" />
    <glyph glyph-name="dieresis" unicode="&#xa8;" horiz-adv-x="333" 
d="M357 606q19 0 33.5 -15t14.5 -34q0 -20 -14.5 -34.5t-34.5 -14.5t-34.5 14.5t-14.5 35.5q0 20 14.5 34t35.5 14zM157 606q19 0 33.5 -15t14.5 -34q0 -20 -14.5 -34.5t-34.5 -14.5t-34.5 14.5t-14.5 35.5q0 20 14.5 34t35.5 14z" />
    <glyph glyph-name="copyright" unicode="&#xa9;" horiz-adv-x="760" 
d="M409 523q40 0 80 -11t40 -28v-69h-16q-15 88 -106 88q-67 0 -103 -44.5t-36 -127.5q0 -84 36.5 -129.5t104.5 -45.5q43 0 71 20t49 64h16l-15 -68q-3 -16 -46 -26t-86 -10q-95 0 -151 51t-56 136q0 89 60.5 144.5t157.5 55.5zM380 666q144 0 241.5 -100t97.5 -248
q0 -139 -99 -237.5t-238 -98.5q-142 0 -241.5 99t-99.5 242t99 243t240 100zM381 624q-116 0 -200.5 -89t-84.5 -212q0 -122 84.5 -210.5t200.5 -88.5q115 0 199 88t84 207q0 127 -82.5 216t-200.5 89z" />
    <glyph glyph-name="ordfeminine" unicode="&#xaa;" horiz-adv-x="276" 
d="M307 447q1 0 36 35l7 -10q-37 -41 -53.5 -53.5t-36.5 -12.5q-31 0 -31 26q0 18 17 61q-37 -51 -63 -69t-63 -18q-36 0 -57 19t-21 51q0 70 61.5 135t127.5 65q52 0 59 -35l7 30l2 2l53 2q-46 -163 -54 -203l-3 -15q-1 -3 -1 -8q0 -6 4 -6zM269 620q0 38 -24 38
q-38 0 -84 -62t-46 -116q0 -15 9 -27.5t20 -12.5q46 0 85.5 69.5t39.5 110.5z" />
    <glyph glyph-name="guillemotleft" unicode="&#xab;" horiz-adv-x="444" 
d="M364 37q-8 0 -70 77.5t-79 101.5v9l36 27q58 45 91 74q88 77 96 77q7 0 7 -8q0 -13 -20.5 -37.5t-68.5 -72.5t-67 -68l20 -40q62 -115 62 -133q0 -7 -7 -7zM200 37q-8 0 -70 77.5t-79 101.5v9l36 27q58 45 91 74q88 77 96 77q7 0 7 -8q0 -13 -20.5 -37.5t-68.5 -72.5
t-67 -68l20 -40q62 -115 62 -133q0 -7 -7 -7z" />
    <glyph glyph-name="logicalnot" unicode="&#xac;" horiz-adv-x="675" 
d="M524 108v212h-438v66h504v-278h-66z" />
    <glyph glyph-name="softhyphen" unicode="&#xad;" horiz-adv-x="333" 
d="M282 255l-13 -63h-220l14 63h219z" />
    <glyph glyph-name="registered" unicode="&#xae;" horiz-adv-x="760" 
d="M500 146q-9 0 -15.5 4t-16 17.5t-18.5 28.5t-29 47t-41 64h-47v-98q0 -32 6 -38t42 -10v-15h-160v15q36 4 42 10t6 38v239q0 32 -6 38t-42 10v15h175q52 0 83 -25t31 -66q0 -71 -79 -103l57 -78q46 -62 75 -84v-9h-63zM333 492v-167h42q68 0 68 89q0 78 -69 78h-41z
M380 666q144 0 241.5 -100t97.5 -248q0 -139 -99 -237.5t-238 -98.5q-142 0 -241.5 99t-99.5 242t99 243t240 100zM381 624q-116 0 -200.5 -89t-84.5 -212q0 -122 84.5 -210.5t200.5 -88.5q115 0 199 88t84 207q0 127 -82.5 216t-200.5 89z" />
    <glyph glyph-name="macron" unicode="&#xaf;" horiz-adv-x="333" 
d="M411 583l-11 -51h-301l11 51h301z" />
    <glyph glyph-name="degree" unicode="&#xb0;" horiz-adv-x="400" 
d="M244 676q60 0 101.5 -41.5t41.5 -101.5q0 -61 -41.5 -102t-103.5 -41q-58 0 -99.5 42t-41.5 101q0 60 41.5 101.5t101.5 41.5zM244 642q-43 0 -73.5 -32.5t-30.5 -76.5t30.5 -76.5t72.5 -32.5q43 0 74 32t31 77q0 44 -31 76.5t-73 32.5z" />
    <glyph glyph-name="plusminus" unicode="&#xb1;" horiz-adv-x="675" 
d="M86 0v66h504v-66h-504zM305 348v220h66v-220h219v-66h-219v-160h-66v160h-219v66h219z" />
    <glyph glyph-name="twosuperior" unicode="&#xb2;" horiz-adv-x="300" 
d="M169 580q41 96 135 96q46 0 78.5 -30t32.5 -71q0 -26 -17 -49.5t-82 -86.5l-114 -110l2 -5h108q27 0 40 7t25 27l11 -8l-33 -79h-231v18l133 130q93 90 93 139q0 28 -23 47.5t-55 19.5q-50 0 -90 -53z" />
    <glyph glyph-name="threesuperior" unicode="&#xb3;" horiz-adv-x="300" 
d="M320 392q0 54 -30 75.5t-83 21.5v9q147 26 147 94q0 22 -14.5 37t-35.5 15q-34 0 -73 -36l-10 7q15 28 43 44.5t62 16.5q40 0 67.5 -22t27.5 -54q0 -29 -21.5 -48t-79.5 -39q1 0 9 -4t11.5 -6t11.5 -7.5t12 -11.5t9 -14.5t7.5 -19.5t2.5 -25q0 -69 -52 -113t-133 -44
q-73 0 -73 39q0 11 8.5 19.5t21.5 8.5t38.5 -18t42.5 -18q36 0 60 26.5t24 66.5z" />
    <glyph glyph-name="acute" unicode="&#xb4;" horiz-adv-x="333" 
d="M180 494l162 160q12 10 25 10q15 0 25.5 -10.5t10.5 -25.5q0 -18 -17 -28l-171 -106h-35z" />
    <glyph glyph-name="micro" unicode="&#xb5;" 
d="M73 18q0 -24 1 -42t1 -42q0 -65 -19.5 -104t-51.5 -39q-34 0 -34 45q0 42 30 102.5t42 115.5l85 374h88l-67 -284q-3 -10 -3 -30q0 -32 18.5 -50.5t50.5 -18.5q68 0 122 70l73 313h88l-78 -336q-6 -22 -6 -34q0 -28 26 -28q22 0 56 26q-6 -17 -38 -41.5t-72 -24.5
q-57 0 -57 59q0 12 4 31q-77 -90 -154 -90q-75 0 -103 76q-2 -42 -2 -48z" />
    <glyph glyph-name="paragraph" unicode="&#xb6;" horiz-adv-x="523" 
d="M92 403q0 33 5.5 63.5t23.5 66t46 61t77.5 42.5t114.5 17h257l-6 -21q-57 -4 -72 -13t-25 -45l-156 -585q-15 -45 -15 -65q0 -18 49 -24q3 0 23 -2l-5 -21h-148l200 755h-58l-200 -755h-148l5 21q58 5 74 13q6 2 15 24t20.5 63t22.5 82t26.5 101.5t26.5 101.5
q-153 6 -153 120zM334 632q-55 -4 -94.5 -44.5t-55 -88.5t-15.5 -93q0 -93 86 -102z" />
    <glyph glyph-name="middot" unicode="&#xb7;" horiz-adv-x="250" 
d="M192 286q19 0 33.5 -15t14.5 -34q0 -20 -14.5 -34.5t-34.5 -14.5t-34.5 14.5t-14.5 35.5q0 20 14.5 34t35.5 14z" />
    <glyph glyph-name="cedilla" unicode="&#xb8;" horiz-adv-x="333" 
d="M21 -96l60 96h38l-44 -66q15 3 25 3q37 0 59.5 -18.5t22.5 -49.5q0 -37 -33.5 -61.5t-85.5 -24.5q-38 0 -93 21l17 29q41 -15 68 -15q53 0 53 41q0 19 -13 31.5t-33 12.5q-12 0 -32 -7z" />
    <glyph glyph-name="onesuperior" unicode="&#xb9;" horiz-adv-x="250" 
d="M223 654q33 5 58 10t34.5 7t17 3t15.5 1l3 1h3q5 0 5 -5t-4 -16l-86 -274q-19 -60 -19 -74q0 -11 10 -15t39 -5v-16h-181v16q35 4 48 9t17 16l90 285q5 15 5 21q0 8 -5 13t-11 5q-3 0 -5 -1h-34v19z" />
    <glyph glyph-name="ordmasculine" unicode="&#xba;" horiz-adv-x="310" 
d="M265 676q43 0 70 -23.5t27 -60.5q0 -69 -62.5 -127.5t-135.5 -58.5q-44 0 -70.5 22.5t-26.5 60.5q0 71 61 129t137 58zM289 607q0 47 -34 47q-40 0 -77.5 -58t-37.5 -120q0 -21 10.5 -33.5t27.5 -12.5q44 0 77.5 60.5t33.5 116.5z" />
    <glyph glyph-name="guillemotright" unicode="&#xbb;" horiz-adv-x="444" 
d="M261 403q8 0 72 -79.5t77 -99.5v-9q-98 -76 -127 -101q-88 -77 -96 -77q-7 0 -7 8q0 13 23.5 41t67.5 72t63 65l-18 40q-62 115 -62 133q0 7 7 7zM98 403q8 0 72 -79.5t77 -99.5v-9q-98 -76 -127 -101q-88 -77 -96 -77q-7 0 -7 8q0 13 23.5 41t67.5 72t63 65l-18 40
q-62 115 -62 133q0 7 7 7z" />
    <glyph glyph-name="onequarter" unicode="&#xbc;" horiz-adv-x="750" 
d="M770 147l-9 -43h-58l-30 -104h-63l32 105h-168l13 42l271 259h36l-79 -259h55zM711 333l-189 -186h129zM707 676l-455 -686h-51l455 686h51zM272 287v-16h-181v16q35 4 48 9t17 16l90 285q5 15 5 21q0 17 -19 17h-6h-30v19l70 12q54 10 60 10q5 0 5 -5q0 -9 -3 -16
l-86 -274q-19 -60 -19 -74q0 -11 10 -15t39 -5z" />
    <glyph glyph-name="onehalf" unicode="&#xbd;" horiz-adv-x="750" 
d="M679 676l-455 -686h-51l455 686h51zM183 654q32 5 58 10t35 7t16.5 3t15.5 1l3 1h2q5 0 5 -5v-1.5v-1.5q0 -3 -3 -13l-86 -274q-19 -62 -19 -74q0 -11 10 -15t39 -5v-16h-181v16q35 4 48 9t17 16l90 285q5 15 5 20q0 18 -24 18h-31v19zM547 309q41 97 136 97
q45 0 77.5 -30.5t32.5 -71.5q0 -26 -17 -49.5t-82 -86.5l-114 -110l2 -5h108q27 0 40 7t25 27l11 -8l-33 -79h-231v18l133 130q93 91 93 139q0 28 -23 47.5t-55 19.5q-50 0 -90 -53z" />
    <glyph glyph-name="threequarters" unicode="&#xbe;" horiz-adv-x="750" 
d="M782 147l-9 -43h-58l-30 -104h-63l32 105h-168l13 42l271 259h36l-79 -259h55zM723 333l-189 -186h129zM720 676l-455 -686h-51l455 686h51zM288 392q0 54 -30 75.5t-83 21.5v9q147 26 147 94q0 22 -14.5 37t-35.5 15q-34 0 -73 -36l-10 7q15 28 43 44.5t62 16.5
q40 0 67.5 -22t27.5 -54q0 -29 -21.5 -48t-79.5 -39q1 0 9 -4t11.5 -6t11.5 -7.5t12 -11.5t9 -14.5t7.5 -19.5t2.5 -25q0 -69 -52 -113t-133 -44q-73 0 -73 39q0 11 8.5 19.5t21.5 8.5t38.5 -18t42.5 -18q36 0 60 26.5t24 66.5z" />
    <glyph glyph-name="questiondown" unicode="&#xbf;" 
d="M252 -135q0 9 -7.5 26t-7.5 26q0 15 11 25t29 10t28.5 -13t10.5 -35q0 -48 -39.5 -78.5t-101.5 -30.5q-67 0 -107 35t-40 94q0 39 22 73t55 61t67.5 54t64 64.5t40.5 79.5l7 29l17 -2q-14 -76 -32 -111.5t-80 -104.5q-49 -55 -68 -91t-19 -75q0 -40 21 -62t59 -22
q32 0 51 13t19 35zM314 473q22 0 37.5 -15t15.5 -37t-15 -37.5t-37 -15.5t-37.5 15.5t-15.5 37.5q0 20 15.5 36t36.5 16z" />
    <glyph glyph-name="Agrave" unicode="&#xc0;" horiz-adv-x="611" 
d="M564 16v-16h-246v16q48 5 63 15t15 38q0 8 -2 26l-20 131h-220l-57 -113q-20 -40 -20 -62q0 -19 10.5 -25t48.5 -10v-16h-187v16q31 6 51.5 30t77.5 122l290 500h26l94 -566q10 -55 22 -68.5t54 -17.5zM175 262h194l-44 260z" />
    <glyph glyph-name="Aacute" unicode="&#xc1;" horiz-adv-x="611" 
d="M564 16v-16h-246v16q48 5 63 15t15 38q0 8 -2 26l-20 131h-220l-57 -113q-20 -40 -20 -62q0 -19 10.5 -25t48.5 -10v-16h-187v16q31 6 51.5 30t77.5 122l290 500h26l94 -566q10 -55 22 -68.5t54 -17.5zM175 262h194l-44 260zM319 706l162 160q12 10 25 10
q15 0 25.5 -10.5t10.5 -25.5q0 -18 -17 -28l-171 -106h-35z" />
    <glyph glyph-name="Acircumflex" unicode="&#xc2;" horiz-adv-x="611" 
d="M564 16v-16h-246v16q48 5 63 15t15 38q0 8 -2 26l-20 131h-220l-57 -113q-20 -40 -20 -62q0 -19 10.5 -25t48.5 -10v-16h-187v16q31 6 51.5 30t77.5 122l290 500h26l94 -566q10 -55 22 -68.5t54 -17.5zM175 262h194l-44 260zM548 719h-34l-100 103l-143 -103h-34l159 167
h62z" />
    <glyph glyph-name="Atilde" unicode="&#xc3;" horiz-adv-x="611" 
d="M564 16v-16h-246v16q48 5 63 15t15 38q0 8 -2 26l-20 131h-220l-57 -113q-20 -40 -20 -62q0 -19 10.5 -25t48.5 -10v-16h-187v16q31 6 51.5 30t77.5 122l290 500h26l94 -566q10 -55 22 -68.5t54 -17.5zM175 262h194l-44 260zM569 802h29q-40 -57 -74.5 -81.5t-75.5 -24.5
q-19 0 -33 4.5t-38 19.5l-18 11q-19 11 -36 11q-35 0 -71 -46h-29q66 101 144 101q35 0 62 -18l19 -12q26 -15 47 -15q17 0 33 11t41 39z" />
    <glyph glyph-name="Adieresis" unicode="&#xc4;" horiz-adv-x="611" 
d="M564 16v-16h-246v16q48 5 63 15t15 38q0 8 -2 26l-20 131h-220l-57 -113q-20 -40 -20 -62q0 -19 10.5 -25t48.5 -10v-16h-187v16q31 6 51.5 30t77.5 122l290 500h26l94 -566q10 -55 22 -68.5t54 -17.5zM175 262h194l-44 260zM296 801q19 0 33.5 -15t14.5 -34
q0 -20 -14.5 -34.5t-34.5 -14.5t-34.5 14.5t-14.5 35.5q0 20 14.5 34t35.5 14zM496 801q19 0 33.5 -15t14.5 -34q0 -20 -14.5 -34.5t-34.5 -14.5t-34.5 14.5t-14.5 35.5q0 20 14.5 34t35.5 14z" />
    <glyph glyph-name="Aring" unicode="&#xc5;" horiz-adv-x="611" 
d="M431 900q36 0 58.5 -22.5t22.5 -56.5q0 -49 -38.5 -84.5t-84.5 -35.5q-36 0 -58 22t-22 56q0 49 38.5 85t83.5 36zM425 866q-31 0 -56 -24t-25 -55q0 -22 14 -37t37 -15q30 0 56 23.5t26 54.5q0 23 -14.5 38t-37.5 15zM564 16v-16h-246v16q48 5 63 15t15 38q0 8 -2 26
l-20 131h-220l-57 -113q-20 -40 -20 -62q0 -19 10.5 -25t48.5 -10v-16h-187v16q31 6 51.5 30t77.5 122l290 500h26l94 -566q10 -55 22 -68.5t54 -17.5zM175 262h194l-44 260z" />
    <glyph glyph-name="AE" unicode="&#xc6;" horiz-adv-x="889" 
d="M221 234q-1 -2 -28 -35t-44.5 -56t-35 -52.5t-17.5 -43.5t12.5 -20.5t51.5 -10.5v-16h-187v16q18 5 33.5 18.5t50.5 57.5l369 465q32 39 32 53q0 23 -38 26q-4 0 -26 2v15h517l-33 -153l-17 2q1 13 1 36q0 53 -34.5 67.5t-157.5 14.5q-35 0 -46 -6.5t-18 -30.5l-61 -222
q54 0 80 2t49.5 6t36 16.5t22 27t23.5 45.5l18 -4l-69 -232l-17 4q6 36 6 52q0 31 -22.5 40.5t-95.5 9.5h-40q-71 -252 -71 -266q0 -29 51 -29h30q112 0 167.5 27t112.5 109l18 -5l-64 -164h-498v16q46 4 59 12t21 36l49 170h-190zM249 271h173l95 342z" />
    <glyph glyph-name="Ccedilla" unicode="&#xc7;" horiz-adv-x="667" 
d="M472 666q38 0 93.5 -12t64.5 -12q27 0 38 22h21l-37 -199l-18 3q-15 162 -153 162q-102 0 -177 -77q-59 -61 -92.5 -146.5t-33.5 -174.5q0 -97 46 -151t129 -54q61 0 111.5 26t118.5 92l17 -14q-68 -79 -132 -114t-141 -35q-26 0 -50 4l-35 -52q15 3 25 3
q37 0 59.5 -18.5t22.5 -49.5q0 -37 -33.5 -61.5t-85.5 -24.5q-38 0 -93 21l17 29q40 -15 68 -15q53 0 53 41q0 19 -13 31.5t-33 12.5q-12 0 -32 -7l-9 8l56 90q-82 24 -130 91t-48 158q0 109 56.5 207t151 157t198.5 59z" />
    <glyph glyph-name="Egrave" unicode="&#xc8;" horiz-adv-x="611" 
d="M499 0zM249 33q70 0 115.5 7.5t79 28t52 40.5t49.5 61l16 -8l-62 -162h-507v16q42 8 55.5 20t25.5 54l123 442q11 40 11 64q0 20 -15.5 28.5t-61.5 12.5v16h497l-31 -153l-21 2q2 34 2 45q0 45 -37 59t-155 14q-42 0 -55 -4.5t-18 -21.5l-66 -233q70 2 79 2q68 3 89 17
t49 78l18 -4l-68 -232l-20 5q7 31 7 52q0 26 -15.5 36t-61.5 10h-8q-25 0 -78 3q-18 -67 -33.5 -120.5t-21.5 -72.5t-9.5 -35.5t-3.5 -32.5q0 -34 80 -34zM489 725h-40l-112 97q-14 12 -14 31q0 16 11 29.5t35 13.5q23 0 36 -23z" />
    <glyph glyph-name="Eacute" unicode="&#xc9;" horiz-adv-x="611" 
d="M499 0zM249 33q70 0 115.5 7.5t79 28t52 40.5t49.5 61l16 -8l-62 -162h-507v16q42 8 55.5 20t25.5 54l123 442q11 40 11 64q0 20 -15.5 28.5t-61.5 12.5v16h497l-31 -153l-21 2q2 34 2 45q0 45 -37 59t-155 14q-42 0 -55 -4.5t-18 -21.5l-66 -233q70 2 79 2q68 3 89 17
t49 78l18 -4l-68 -232l-20 5q7 31 7 52q0 26 -15.5 36t-61.5 10h-8q-25 0 -78 3q-18 -67 -33.5 -120.5t-21.5 -72.5t-9.5 -35.5t-3.5 -32.5q0 -34 80 -34zM333 706l162 160q12 10 25 10q15 0 25.5 -10.5t10.5 -25.5q0 -18 -17 -28l-171 -106h-35z" />
    <glyph glyph-name="Ecircumflex" unicode="&#xca;" horiz-adv-x="611" 
d="M499 0zM249 33q70 0 115.5 7.5t79 28t52 40.5t49.5 61l16 -8l-62 -162h-507v16q42 8 55.5 20t25.5 54l123 442q11 40 11 64q0 20 -15.5 28.5t-61.5 12.5v16h497l-31 -153l-21 2q2 34 2 45q0 45 -37 59t-155 14q-42 0 -55 -4.5t-18 -21.5l-66 -233q70 2 79 2q68 3 89 17
t49 78l18 -4l-68 -232l-20 5q7 31 7 52q0 26 -15.5 36t-61.5 10h-8q-25 0 -78 3q-18 -67 -33.5 -120.5t-21.5 -72.5t-9.5 -35.5t-3.5 -32.5q0 -34 80 -34zM585 719h-34l-100 103l-143 -103h-34l159 167h62z" />
    <glyph glyph-name="Edieresis" unicode="&#xcb;" horiz-adv-x="611" 
d="M499 0zM249 33q70 0 115.5 7.5t79 28t52 40.5t49.5 61l16 -8l-62 -162h-507v16q42 8 55.5 20t25.5 54l123 442q11 40 11 64q0 20 -15.5 28.5t-61.5 12.5v16h497l-31 -153l-21 2q2 34 2 45q0 45 -37 59t-155 14q-42 0 -55 -4.5t-18 -21.5l-66 -233q70 2 79 2q68 3 89 17
t49 78l18 -4l-68 -232l-20 5q7 31 7 52q0 26 -15.5 36t-61.5 10h-8q-25 0 -78 3q-18 -67 -33.5 -120.5t-21.5 -72.5t-9.5 -35.5t-3.5 -32.5q0 -34 80 -34zM331 801q19 0 33.5 -15t14.5 -34q0 -20 -14.5 -34.5t-34.5 -14.5t-34.5 14.5t-14.5 35.5q0 20 14.5 34t35.5 14z
M531 801q19 0 33.5 -15t14.5 -34q0 -20 -14.5 -34.5t-34.5 -14.5t-34.5 14.5t-14.5 35.5q0 20 14.5 34t35.5 14z" />
    <glyph glyph-name="Igrave" unicode="&#xcc;" horiz-adv-x="333" 
d="M-8 0v16q43 8 56 19.5t25 54.5l123 442q11 39 11 62q0 21 -13.5 29.5t-56.5 13.5v16h247v-16q-44 -8 -57 -19.5t-25 -54.5l-123 -443q-11 -39 -11 -63q0 -21 12.5 -28.5t55.5 -12.5v-16h-244z" />
    <glyph glyph-name="Iacute" unicode="&#xcd;" horiz-adv-x="333" 
d="M-8 0v16q43 8 56 19.5t25 54.5l123 442q11 39 11 62q0 21 -13.5 29.5t-56.5 13.5v16h247v-16q-44 -8 -57 -19.5t-25 -54.5l-123 -443q-11 -39 -11 -63q0 -21 12.5 -28.5t55.5 -12.5v-16h-244zM180 706l162 160q12 10 25 10q15 0 25.5 -10.5t10.5 -25.5q0 -18 -17 -28
l-171 -106h-35z" />
    <glyph glyph-name="Icircumflex" unicode="&#xce;" horiz-adv-x="333" 
d="M-8 0v16q43 8 56 19.5t25 54.5l123 442q11 39 11 62q0 21 -13.5 29.5t-56.5 13.5v16h247v-16q-44 -8 -57 -19.5t-25 -54.5l-123 -443q-11 -39 -11 -63q0 -21 12.5 -28.5t55.5 -12.5v-16h-244zM447 719h-34l-100 103l-143 -103h-34l159 167h62z" />
    <glyph glyph-name="Idieresis" unicode="&#xcf;" horiz-adv-x="333" 
d="M-8 0v16q43 8 56 19.5t25 54.5l123 442q11 39 11 62q0 21 -13.5 29.5t-56.5 13.5v16h247v-16q-44 -8 -57 -19.5t-25 -54.5l-123 -443q-11 -39 -11 -63q0 -21 12.5 -28.5t55.5 -12.5v-16h-244zM187 818q19 0 33.5 -15t14.5 -34q0 -20 -14.5 -34.5t-34.5 -14.5t-34.5 14.5
t-14.5 35.5q0 20 14.5 34t35.5 14zM387 818q19 0 33.5 -15t14.5 -34q0 -20 -14.5 -34.5t-34.5 -14.5t-34.5 14.5t-14.5 35.5q0 20 14.5 34t35.5 14z" />
    <glyph glyph-name="Eth" unicode="&#xd0;" horiz-adv-x="722" 
d="M700 384q0 -165 -126.5 -274.5t-328.5 -109.5h-253v16q43 8 56 19.5t25 54.5l65 236h-90l12 42h90l46 164q11 38 11 64q0 20 -15 28.5t-62 12.5v16h278q134 0 213 -73t79 -196zM589 408q0 37 -8.5 70.5t-29.5 68t-65.5 55.5t-108.5 21q-32 0 -46 -6.5t-18 -22.5l-63 -226
h153l-12 -42h-153l-46 -164q-22 -77 -22 -95q0 -37 65 -37q159 0 256.5 104t97.5 274z" />
    <glyph glyph-name="Ntilde" unicode="&#xd1;" horiz-adv-x="667" 
d="M589 534q0 2 5.5 19t5.5 33q0 27 -13.5 37t-56.5 14v16h199v-16q-47 -10 -61.5 -31t-42.5 -118l-144 -503h-18l-230 550l-114 -422q-9 -31 -9 -54q0 -21 16 -30.5t54 -12.5v-16h-198v16q43 6 59 29t44 119l119 417q-13 29 -32 41t-54 15v16h161l208 -499zM619 838h29
q-40 -57 -74.5 -81.5t-75.5 -24.5q-19 0 -33 4.5t-38 19.5l-18 11q-19 11 -36 11q-35 0 -71 -46h-29q66 101 144 101q35 0 62 -18l19 -12q26 -15 47 -15q17 0 33 11t41 39z" />
    <glyph glyph-name="Ograve" unicode="&#xd2;" horiz-adv-x="722" 
d="M60 221q0 88 40 172.5t101.5 143t134 94t138.5 35.5q97 0 161 -66.5t64 -167.5q0 -71 -31.5 -149.5t-85.5 -145.5t-134.5 -111t-169.5 -44q-95 0 -156.5 67t-61.5 172zM295 15q64 0 122 48t95.5 119.5t59.5 151.5t22 147q0 70 -35 111t-94 41q-108 0 -190 -119
q-45 -65 -77.5 -162.5t-32.5 -167.5q0 -81 33.5 -125t96.5 -44z" />
    <glyph glyph-name="Oacute" unicode="&#xd3;" horiz-adv-x="722" 
d="M60 221q0 88 40 172.5t101.5 143t134 94t138.5 35.5q97 0 161 -66.5t64 -167.5q0 -71 -31.5 -149.5t-85.5 -145.5t-134.5 -111t-169.5 -44q-95 0 -156.5 67t-61.5 172zM295 15q64 0 122 48t95.5 119.5t59.5 151.5t22 147q0 70 -35 111t-94 41q-108 0 -190 -119
q-45 -65 -77.5 -162.5t-32.5 -167.5q0 -81 33.5 -125t96.5 -44zM416 706l162 160q12 10 25 10q15 0 25.5 -10.5t10.5 -25.5q0 -18 -17 -28l-171 -106h-35z" />
    <glyph glyph-name="Ocircumflex" unicode="&#xd4;" horiz-adv-x="722" 
d="M60 221q0 88 40 172.5t101.5 143t134 94t138.5 35.5q97 0 161 -66.5t64 -167.5q0 -71 -31.5 -149.5t-85.5 -145.5t-134.5 -111t-169.5 -44q-95 0 -156.5 67t-61.5 172zM295 15q64 0 122 48t95.5 119.5t59.5 151.5t22 147q0 70 -35 111t-94 41q-108 0 -190 -119
q-45 -65 -77.5 -162.5t-32.5 -167.5q0 -81 33.5 -125t96.5 -44zM651 719h-34l-100 103l-143 -103h-34l159 167h62z" />
    <glyph glyph-name="Otilde" unicode="&#xd5;" horiz-adv-x="722" 
d="M60 221q0 88 40 172.5t101.5 143t134 94t138.5 35.5q97 0 161 -66.5t64 -167.5q0 -71 -31.5 -149.5t-85.5 -145.5t-134.5 -111t-169.5 -44q-95 0 -156.5 67t-61.5 172zM295 15q64 0 122 48t95.5 119.5t59.5 151.5t22 147q0 70 -35 111t-94 41q-108 0 -190 -119
q-45 -65 -77.5 -162.5t-32.5 -167.5q0 -81 33.5 -125t96.5 -44zM666 801h29q-40 -57 -74.5 -81.5t-75.5 -24.5q-19 0 -33 4.5t-38 19.5l-18 11q-19 11 -36 11q-35 0 -71 -46h-29q66 101 144 101q35 0 62 -18l19 -12q26 -15 47 -15q17 0 33 11t41 39z" />
    <glyph glyph-name="Odieresis" unicode="&#xd6;" horiz-adv-x="722" 
d="M60 221q0 88 40 172.5t101.5 143t134 94t138.5 35.5q97 0 161 -66.5t64 -167.5q0 -71 -31.5 -149.5t-85.5 -145.5t-134.5 -111t-169.5 -44q-95 0 -156.5 67t-61.5 172zM295 15q64 0 122 48t95.5 119.5t59.5 151.5t22 147q0 70 -35 111t-94 41q-108 0 -190 -119
q-45 -65 -77.5 -162.5t-32.5 -167.5q0 -81 33.5 -125t96.5 -44zM398 802q19 0 33.5 -15t14.5 -34q0 -20 -14.5 -34.5t-34.5 -14.5t-34.5 14.5t-14.5 35.5q0 20 14.5 34t35.5 14zM598 802q19 0 33.5 -15t14.5 -34q0 -20 -14.5 -34.5t-34.5 -14.5t-34.5 14.5t-14.5 35.5
q0 20 14.5 34t35.5 14z" />
    <glyph glyph-name="multiply" unicode="&#xd7;" horiz-adv-x="675" 
d="M289 253l-196 196l48 48l196 -197l197 197l48 -48l-197 -196l197 -197l-48 -48l-197 197l-196 -197l-48 48z" />
    <glyph glyph-name="Oslash" unicode="&#xd8;" horiz-adv-x="722" 
d="M60 222q0 88 40.5 172.5t102 142.5t132.5 93.5t133 35.5q54 0 105 -22l52 78h44l-64 -96q94 -74 94 -195q0 -83 -36 -165.5t-94 -144.5t-134.5 -100.5t-153.5 -38.5q-41 0 -94 21l-74 -108h-44l86 127q-95 69 -95 200zM464 633q-64 0 -122 -47.5t-95.5 -118t-59.5 -148.5
t-22 -143q0 -55 25 -102l356 533q-36 26 -82 26zM570 574l-355 -530q30 -29 80 -29q107 0 188 117q47 68 79 167.5t32 175.5q0 55 -24 99z" />
    <glyph glyph-name="Ugrave" unicode="&#xd9;" horiz-adv-x="722" 
d="M637 591q0 24 -17 33.5t-54 12.5v16h199v-16q-21 -5 -31.5 -9.5t-20.5 -11t-17.5 -24.5t-14.5 -39t-20 -65l-83 -285q-33 -112 -96.5 -166.5t-161.5 -54.5q-95 0 -156.5 46.5t-61.5 118.5q0 57 43 212l53 192q7 30 7 45q0 22 -14 29.5t-64 11.5v16h273v-16
q-20 -2 -34.5 -5.5t-25 -11t-17 -12t-12.5 -17.5t-8 -18t-7 -23t-6 -23q-98 -338 -98 -386q0 -52 39 -85t101 -33q43 0 79 17.5t57.5 40.5t40 60.5t26.5 61t17.5 60t10.5 41.5q74 261 74 287z" />
    <glyph glyph-name="Uacute" unicode="&#xda;" horiz-adv-x="722" 
d="M637 591q0 24 -17 33.5t-54 12.5v16h199v-16q-21 -5 -31.5 -9.5t-20.5 -11t-17.5 -24.5t-14.5 -39t-20 -65l-83 -285q-33 -112 -96.5 -166.5t-161.5 -54.5q-95 0 -156.5 46.5t-61.5 118.5q0 57 43 212l53 192q7 30 7 45q0 22 -14 29.5t-64 11.5v16h273v-16
q-20 -2 -34.5 -5.5t-25 -11t-17 -12t-12.5 -17.5t-8 -18t-7 -23t-6 -23q-98 -338 -98 -386q0 -52 39 -85t101 -33q43 0 79 17.5t57.5 40.5t40 60.5t26.5 61t17.5 60t10.5 41.5q74 261 74 287zM437 706l162 160q12 10 25 10q15 0 25.5 -10.5t10.5 -25.5q0 -18 -17 -28
l-171 -106h-35z" />
    <glyph glyph-name="Ucircumflex" unicode="&#xdb;" horiz-adv-x="722" 
d="M637 591q0 24 -17 33.5t-54 12.5v16h199v-16q-21 -5 -31.5 -9.5t-20.5 -11t-17.5 -24.5t-14.5 -39t-20 -65l-83 -285q-33 -112 -96.5 -166.5t-161.5 -54.5q-95 0 -156.5 46.5t-61.5 118.5q0 57 43 212l53 192q7 30 7 45q0 22 -14 29.5t-64 11.5v16h273v-16
q-20 -2 -34.5 -5.5t-25 -11t-17 -12t-12.5 -17.5t-8 -18t-7 -23t-6 -23q-98 -338 -98 -386q0 -52 39 -85t101 -33q43 0 79 17.5t57.5 40.5t40 60.5t26.5 61t17.5 60t10.5 41.5q74 261 74 287zM639 719h-34l-100 103l-143 -103h-34l159 167h62z" />
    <glyph glyph-name="Udieresis" unicode="&#xdc;" horiz-adv-x="722" 
d="M637 591q0 24 -17 33.5t-54 12.5v16h199v-16q-21 -5 -31.5 -9.5t-20.5 -11t-17.5 -24.5t-14.5 -39t-20 -65l-83 -285q-33 -112 -96.5 -166.5t-161.5 -54.5q-95 0 -156.5 46.5t-61.5 118.5q0 57 43 212l53 192q7 30 7 45q0 22 -14 29.5t-64 11.5v16h273v-16
q-20 -2 -34.5 -5.5t-25 -11t-17 -12t-12.5 -17.5t-8 -18t-7 -23t-6 -23q-98 -338 -98 -386q0 -52 39 -85t101 -33q43 0 79 17.5t57.5 40.5t40 60.5t26.5 61t17.5 60t10.5 41.5q74 261 74 287zM394 801q19 0 33.5 -15t14.5 -34q0 -20 -14.5 -34.5t-34.5 -14.5t-34.5 14.5
t-14.5 35.5q0 20 14.5 34t35.5 14zM594 801q19 0 33.5 -15t14.5 -34q0 -20 -14.5 -34.5t-34.5 -14.5t-34.5 14.5t-14.5 35.5q0 20 14.5 34t35.5 14z" />
    <glyph glyph-name="Yacute" unicode="&#xdd;" horiz-adv-x="556" 
d="M278 56q0 -23 17.5 -30t71.5 -10v-16h-289v16q50 3 71.5 18.5t33.5 55.5l61 212l-77 269q-13 41 -23.5 50.5t-52.5 15.5v16h239v-16q-45 -5 -58.5 -11.5t-13.5 -24.5q0 -7 1.5 -16.5t7 -30t12 -42.5t20 -69t26.5 -96l38 46q150 175 150 213q0 17 -16.5 22.5t-52.5 8.5v16
h189v-16q-22 -10 -34 -20.5t-36 -40.5l-219 -270l-29 -101q-2 -9 -12 -41.5t-17.5 -62.5t-7.5 -45zM344 706l162 160q12 10 25 10q15 0 25.5 -10.5t10.5 -25.5q0 -18 -17 -28l-171 -106h-35z" />
    <glyph glyph-name="Thorn" unicode="&#xde;" horiz-adv-x="611" 
d="M569 369q0 -34 -12.5 -66t-41.5 -63.5t-85.5 -50.5t-134.5 -19q-55 0 -89 10l-17 -60q-12 -44 -12 -58q0 -25 10.5 -32t57.5 -14v-16h-245v16q43 6 56 17.5t26 56.5l118 425q17 60 17 80t-14 28.5t-57 13.5v16h238v-16q-30 -4 -43.5 -12.5t-18.5 -29.5l-20 -77h56
q102 0 156.5 -38.5t54.5 -110.5zM466 368q0 56 -28.5 88t-105.5 32q-38 0 -46 -29l-71 -248q30 -5 52 -5q96 0 147.5 35t51.5 127z" />
    <glyph glyph-name="ssharp" unicode="&#xdf;" 
d="M493 548q0 -53 -35.5 -91.5t-127.5 -72.5v-3q39 -5 66 -22.5t38.5 -41t15.5 -40.5t4 -33q0 -91 -61.5 -174t-151.5 -83q-36 0 -58 18.5t-22 47.5q0 21 12 34t32 13q17 0 27.5 -11t10.5 -29q0 -12 -6 -24t-6 -14q0 -5 5.5 -9t12.5 -4q33 0 58 33t37 79t17.5 83t5.5 58
q0 104 -81 107q-26 1 -26 15q0 13 17 13q61 0 98.5 50t37.5 130q0 79 -62 79q-87 0 -145 -218l-111 -426q-27 -103 -76 -161t-109 -58q-35 0 -56.5 17t-21.5 45q0 19 10.5 30.5t28.5 11.5q17 0 28.5 -10t11.5 -26q0 -10 -6 -21.5t-6 -14.5q0 -8 18 -8q37 0 60.5 39t45.5 140
l72 319q43 192 104.5 278t154.5 86q62 0 100.5 -36t38.5 -95z" />
    <glyph glyph-name="agrave" unicode="&#xe0;" 
d="M384 41q4 0 10 3.5t15.5 11.5t15.5 14.5t19.5 20l19.5 19.5l12 -10q-55 -68 -82 -89t-57 -21q-40 0 -40 41q0 25 23 115q-66 -93 -107 -125t-94 -32q-48 0 -75 29.5t-27 81.5q0 77 43.5 157t111 132t131.5 52q67 0 80 -58l11 48l3 3l61 7l7 -3q-1 -4 -6 -21
q-89 -326 -89 -363q0 -13 14 -13zM365 358q0 28 -16.5 44.5t-44.5 16.5q-55 0 -104.5 -64t-74 -133.5t-24.5 -108.5q0 -34 16 -54.5t42 -20.5q47 0 96 54.5t79.5 129.5t30.5 136z" />
    <glyph glyph-name="aacute" unicode="&#xe1;" 
d="M384 41q4 0 10 3.5t15.5 11.5t15.5 14.5t19.5 20l19.5 19.5l12 -10q-55 -68 -82 -89t-57 -21q-40 0 -40 41q0 25 23 115q-66 -93 -107 -125t-94 -32q-48 0 -75 29.5t-27 81.5q0 77 43.5 157t111 132t131.5 52q67 0 80 -58l11 48l3 3l61 7l7 -3q-1 -4 -6 -21
q-89 -326 -89 -363q0 -13 14 -13zM365 358q0 28 -16.5 44.5t-44.5 16.5q-55 0 -104.5 -64t-74 -133.5t-24.5 -108.5q0 -34 16 -54.5t42 -20.5q47 0 96 54.5t79.5 129.5t30.5 136zM264 494l162 160q12 10 25 10q15 0 25.5 -10.5t10.5 -25.5q0 -18 -17 -28l-171 -106h-35z" />
    <glyph glyph-name="acircumflex" unicode="&#xe2;" 
d="M384 41q4 0 10 3.5t15.5 11.5t15.5 14.5t19.5 20l19.5 19.5l12 -10q-55 -68 -82 -89t-57 -21q-40 0 -40 41q0 25 23 115q-66 -93 -107 -125t-94 -32q-48 0 -75 29.5t-27 81.5q0 77 43.5 157t111 132t131.5 52q67 0 80 -58l11 48l3 3l61 7l7 -3q-1 -4 -6 -21
q-89 -326 -89 -363q0 -13 14 -13zM365 358q0 28 -16.5 44.5t-44.5 16.5q-55 0 -104.5 -64t-74 -133.5t-24.5 -108.5q0 -34 16 -54.5t42 -20.5q47 0 96 54.5t79.5 129.5t30.5 136zM480 507h-34l-100 103l-143 -103h-34l159 167h62z" />
    <glyph glyph-name="atilde" unicode="&#xe3;" 
d="M384 41q4 0 10 3.5t15.5 11.5t15.5 14.5t19.5 20l19.5 19.5l12 -10q-55 -68 -82 -89t-57 -21q-40 0 -40 41q0 25 23 115q-66 -93 -107 -125t-94 -32q-48 0 -75 29.5t-27 81.5q0 77 43.5 157t111 132t131.5 52q67 0 80 -58l11 48l3 3l61 7l7 -3q-1 -4 -6 -21
q-89 -326 -89 -363q0 -13 14 -13zM365 358q0 28 -16.5 44.5t-44.5 16.5q-55 0 -104.5 -64t-74 -133.5t-24.5 -108.5q0 -34 16 -54.5t42 -20.5q47 0 96 54.5t79.5 129.5t30.5 136zM480 626h29q-40 -57 -74.5 -81.5t-75.5 -24.5q-19 0 -33 4.5t-38 19.5l-18 11q-19 11 -36 11
q-35 0 -71 -46h-29q66 101 144 101q35 0 62 -18l19 -12q26 -15 47 -15q17 0 33 11t41 39z" />
    <glyph glyph-name="adieresis" unicode="&#xe4;" 
d="M384 41q4 0 10 3.5t15.5 11.5t15.5 14.5t19.5 20l19.5 19.5l12 -10q-55 -68 -82 -89t-57 -21q-40 0 -40 41q0 25 23 115q-66 -93 -107 -125t-94 -32q-48 0 -75 29.5t-27 81.5q0 77 43.5 157t111 132t131.5 52q67 0 80 -58l11 48l3 3l61 7l7 -3q-1 -4 -6 -21
q-89 -326 -89 -363q0 -13 14 -13zM365 358q0 28 -16.5 44.5t-44.5 16.5q-55 0 -104.5 -64t-74 -133.5t-24.5 -108.5q0 -34 16 -54.5t42 -20.5q47 0 96 54.5t79.5 129.5t30.5 136zM241 600q19 0 33.5 -15t14.5 -34q0 -20 -14.5 -34.5t-34.5 -14.5t-34.5 14.5t-14.5 35.5
q0 20 14.5 34t35.5 14zM441 600q19 0 33.5 -15t14.5 -34q0 -20 -14.5 -34.5t-34.5 -14.5t-34.5 14.5t-14.5 35.5q0 20 14.5 34t35.5 14z" />
    <glyph glyph-name="aring" unicode="&#xe5;" 
d="M358 711q36 0 58.5 -22.5t22.5 -56.5q0 -49 -38.5 -84.5t-84.5 -35.5q-36 0 -58 22t-22 56q0 49 38.5 85t83.5 36zM352 677q-31 0 -56 -24t-25 -55q0 -22 14 -37t37 -15q30 0 56 23.5t26 54.5q0 23 -14.5 38t-37.5 15zM384 41q4 0 10 3.5t15.5 11.5t15.5 14.5t19.5 20
l19.5 19.5l12 -10q-55 -68 -82 -89t-57 -21q-40 0 -40 41q0 25 23 115q-66 -93 -107 -125t-94 -32q-48 0 -75 29.5t-27 81.5q0 77 43.5 157t111 132t131.5 52q67 0 80 -58l11 48l3 3l61 7l7 -3q-1 -4 -6 -21q-89 -326 -89 -363q0 -13 14 -13zM365 358q0 28 -16.5 44.5
t-44.5 16.5q-55 0 -104.5 -64t-74 -133.5t-24.5 -108.5q0 -34 16 -54.5t42 -20.5q47 0 96 54.5t79.5 129.5t30.5 136z" />
    <glyph glyph-name="ae" unicode="&#xe6;" horiz-adv-x="673" 
d="M582 113l10 -12q-42 -51 -95 -81.5t-100 -30.5t-77 34.5t-30 87.5q0 16 6 40q-64 -93 -105.5 -127.5t-89.5 -34.5q-37 0 -60.5 26.5t-23.5 67.5q0 77 43.5 161.5t110 140.5t126.5 56q26 0 40 -10t26 -37l19 43l71 2l-22 -62q65 64 122 64q37 0 59 -19t22 -51
q0 -28 -15.5 -52.5t-40.5 -41.5t-57.5 -31t-64 -24.5t-63.5 -19.5q-10 -3 -15 -4q-8 -37 -8 -61q0 -101 70 -101q61 0 142 77zM344 370q0 23 -13 37t-35 14q-40 0 -86 -55t-76.5 -132.5t-30.5 -141.5q0 -53 34 -53q44 0 93 56.5t81.5 134.5t32.5 140zM384 223
q37 11 63.5 21.5t57 29t47 45t16.5 60.5q0 37 -35 37q-86 0 -149 -193z" />
    <glyph glyph-name="ccedilla" unicode="&#xe7;" horiz-adv-x="444" 
d="M316 420q-45 0 -81.5 -23.5t-58 -57.5t-36 -75t-19.5 -72.5t-5 -52.5q0 -53 24 -83.5t67 -30.5q37 0 69.5 18.5t73.5 62.5l16 -10q-45 -58 -89 -82.5t-101 -24.5h-8l-37 -55q15 3 25 3q37 0 59.5 -18.5t22.5 -49.5q0 -37 -33.5 -61.5t-85.5 -24.5q-38 0 -93 21l17 29
q40 -15 68 -15q53 0 53 41q0 19 -13 31.5t-33 12.5q-12 0 -32 -7l-9 8l56 90q-103 25 -103 145q0 117 89 209.5t201 92.5q45 0 75 -23t30 -58q0 -19 -14 -32.5t-34 -13.5q-39 0 -39 38q0 10 7.5 26.5t7.5 21.5q0 20 -37 20z" />
    <glyph glyph-name="egrave" unicode="&#xe8;" horiz-adv-x="444" 
d="M358 109l12 -12q-44 -51 -99 -79.5t-108 -28.5q-59 0 -95.5 38t-36.5 99q0 73 45 147t115.5 121t140.5 47q37 0 58.5 -18t21.5 -50q0 -65 -72 -116t-184 -67l-28 -4q-10 -40 -10 -62q0 -41 25.5 -65.5t68.5 -24.5q32 0 62 15.5t84 59.5zM135 208q54 13 94.5 32t62 37
t34.5 39t16.5 35t3.5 28q0 17 -9.5 28t-25.5 11q-38 0 -86 -49.5t-73 -116.5z" />
    <glyph glyph-name="eacute" unicode="&#xe9;" horiz-adv-x="444" 
d="M358 109l12 -12q-44 -51 -99 -79.5t-108 -28.5q-59 0 -95.5 38t-36.5 99q0 73 45 147t115.5 121t140.5 47q37 0 58.5 -18t21.5 -50q0 -65 -72 -116t-184 -67l-28 -4q-10 -40 -10 -62q0 -41 25.5 -65.5t68.5 -24.5q32 0 62 15.5t84 59.5zM135 208q54 13 94.5 32t62 37
t34.5 39t16.5 35t3.5 28q0 17 -9.5 28t-25.5 11q-38 0 -86 -49.5t-73 -116.5zM280 494l162 160q12 10 25 10q15 0 25.5 -10.5t10.5 -25.5q0 -18 -17 -28l-171 -106h-35z" />
    <glyph glyph-name="ecircumflex" unicode="&#xea;" horiz-adv-x="444" 
d="M358 109l12 -12q-44 -51 -99 -79.5t-108 -28.5q-59 0 -95.5 38t-36.5 99q0 73 45 147t115.5 121t140.5 47q37 0 58.5 -18t21.5 -50q0 -65 -72 -116t-184 -67l-28 -4q-10 -40 -10 -62q0 -41 25.5 -65.5t68.5 -24.5q32 0 62 15.5t84 59.5zM135 208q54 13 94.5 32t62 37
t34.5 39t16.5 35t3.5 28q0 17 -9.5 28t-25.5 11q-38 0 -86 -49.5t-73 -116.5zM459 507h-34l-100 103l-143 -103h-34l159 167h62z" />
    <glyph glyph-name="edieresis" unicode="&#xeb;" horiz-adv-x="444" 
d="M358 109l12 -12q-44 -51 -99 -79.5t-108 -28.5q-59 0 -95.5 38t-36.5 99q0 73 45 147t115.5 121t140.5 47q37 0 58.5 -18t21.5 -50q0 -65 -72 -116t-184 -67l-28 -4q-10 -40 -10 -62q0 -41 25.5 -65.5t68.5 -24.5q32 0 62 15.5t84 59.5zM135 208q54 13 94.5 32t62 37
t34.5 39t16.5 35t3.5 28q0 17 -9.5 28t-25.5 11q-38 0 -86 -49.5t-73 -116.5zM203 601q19 0 33.5 -15t14.5 -34q0 -20 -14.5 -34.5t-34.5 -14.5t-34.5 14.5t-14.5 35.5q0 20 14.5 34t35.5 14zM403 601q19 0 33.5 -15t14.5 -34q0 -20 -14.5 -34.5t-34.5 -14.5t-34.5 14.5
t-14.5 35.5q0 20 14.5 34t35.5 14z" />
    <glyph glyph-name="igrave" unicode="&#xec;" horiz-adv-x="278" 
d="M140 36q23 0 82 78l13 -11q-43 -63 -74 -88.5t-66 -25.5q-46 0 -46 57q0 29 22 109l48 177q9 30 9 44q0 15 -11.5 19t-51.5 5v16q46 4 160 25l3 -2l-88 -322q-16 -59 -16 -66q0 -5 5 -10t11 -5z" />
    <glyph glyph-name="iacute" unicode="&#xed;" horiz-adv-x="278" 
d="M140 36q23 0 82 78l13 -11q-43 -63 -74 -88.5t-66 -25.5q-46 0 -46 57q0 29 22 109l48 177q9 30 9 44q0 15 -11.5 19t-51.5 5v16q46 4 160 25l3 -2l-88 -322q-16 -59 -16 -66q0 -5 5 -10t11 -5zM133 494l162 160q12 10 25 10q15 0 25.5 -10.5t10.5 -25.5q0 -18 -17 -28
l-171 -106h-35z" />
    <glyph glyph-name="icircumflex" unicode="&#xee;" horiz-adv-x="278" 
d="M140 36q23 0 82 78l13 -11q-43 -63 -74 -88.5t-66 -25.5q-46 0 -46 57q0 29 22 109l48 177q9 30 9 44q0 15 -11.5 19t-51.5 5v16q46 4 160 25l3 -2l-88 -322q-16 -59 -16 -66q0 -5 5 -10t11 -5zM362 507h-34l-100 103l-143 -103h-34l159 167h62z" />
    <glyph glyph-name="idieresis" unicode="&#xef;" horiz-adv-x="278" 
d="M140 36q23 0 82 78l13 -11q-43 -63 -74 -88.5t-66 -25.5q-46 0 -46 57q0 29 22 109l48 177q9 30 9 44q0 15 -11.5 19t-51.5 5v16q46 4 160 25l3 -2l-88 -322q-16 -59 -16 -66q0 -5 5 -10t11 -5zM105 602q19 0 33.5 -15t14.5 -34q0 -20 -14.5 -34.5t-34.5 -14.5
t-34.5 14.5t-14.5 35.5q0 20 14.5 34t35.5 14zM305 602q19 0 33.5 -15t14.5 -34q0 -20 -14.5 -34.5t-34.5 -14.5t-34.5 14.5t-14.5 35.5q0 20 14.5 34t35.5 14z" />
    <glyph glyph-name="eth" unicode="&#xf0;" 
d="M324 567l-117 -51l-33 29l123 54q-47 44 -103 67l35 17q66 -15 122 -61l99 43l32 -28l-101 -45q46 -55 66 -109t20 -124q0 -149 -87.5 -259.5t-205.5 -110.5q-68 0 -107.5 37.5t-39.5 102.5q0 113 90 212.5t193 99.5q58 0 84 -49l2 1q-14 99 -72 174zM189 10
q53 0 99.5 55t71 127.5t24.5 133.5q0 43 -19.5 68.5t-51.5 25.5q-50 0 -98.5 -53t-76 -127t-27.5 -139q0 -41 21.5 -66t56.5 -25z" />
    <glyph glyph-name="ntilde" unicode="&#xf1;" 
d="M460 117l14 -13q-52 -69 -79 -91t-61 -22q-25 0 -36 13t-11 41q0 15 16 75l44 165q14 54 14 76q0 29 -24 29q-55 0 -148 -142q-33 -51 -49 -90.5t-51 -157.5h-75l96 350q2 10 2 17q0 15 -13 20.5t-51 6.5v16q101 19 162 31l3 -2l-67 -218q77 120 129.5 170t100.5 50
q29 0 47.5 -17t18.5 -44q0 -26 -9 -57l-57 -206q-14 -56 -14 -63q0 -6 5 -11t11 -5q19 0 61 53zM488 626h29q-40 -57 -74.5 -81.5t-75.5 -24.5q-19 0 -33 4.5t-38 19.5l-18 11q-19 11 -36 11q-35 0 -71 -46h-29q66 101 144 101q35 0 62 -18l19 -12q26 -15 47 -15q17 0 33 11
t41 39z" />
    <glyph glyph-name="ograve" unicode="&#xf2;" 
d="M468 301q0 -66 -38.5 -137.5t-108.5 -123t-147 -51.5q-68 0 -107.5 37.5t-39.5 102.5q0 118 93 215t205 97q64 0 103.5 -39t39.5 -101zM189 10q53 0 99.5 55t71 127.5t24.5 133.5q0 43 -19.5 68.5t-51.5 25.5q-50 0 -98 -53t-76 -127t-28 -139q0 -41 21.5 -66t56.5 -25z
" />
    <glyph glyph-name="oacute" unicode="&#xf3;" 
d="M468 301q0 -66 -38.5 -137.5t-108.5 -123t-147 -51.5q-68 0 -107.5 37.5t-39.5 102.5q0 118 93 215t205 97q64 0 103.5 -39t39.5 -101zM189 10q53 0 99.5 55t71 127.5t24.5 133.5q0 43 -19.5 68.5t-51.5 25.5q-50 0 -98 -53t-76 -127t-28 -139q0 -41 21.5 -66t56.5 -25z
M264 494l162 160q12 10 25 10q15 0 25.5 -10.5t10.5 -25.5q0 -18 -17 -28l-171 -106h-35z" />
    <glyph glyph-name="ocircumflex" unicode="&#xf4;" 
d="M468 301q0 -66 -38.5 -137.5t-108.5 -123t-147 -51.5q-68 0 -107.5 37.5t-39.5 102.5q0 118 93 215t205 97q64 0 103.5 -39t39.5 -101zM189 10q53 0 99.5 55t71 127.5t24.5 133.5q0 43 -19.5 68.5t-51.5 25.5q-50 0 -98 -53t-76 -127t-28 -139q0 -41 21.5 -66t56.5 -25z
M497 507h-34l-100 103l-143 -103h-34l159 167h62z" />
    <glyph glyph-name="otilde" unicode="&#xf5;" 
d="M468 301q0 -66 -38.5 -137.5t-108.5 -123t-147 -51.5q-68 0 -107.5 37.5t-39.5 102.5q0 118 93 215t205 97q64 0 103.5 -39t39.5 -101zM189 10q53 0 99.5 55t71 127.5t24.5 133.5q0 43 -19.5 68.5t-51.5 25.5q-50 0 -98 -53t-76 -127t-28 -139q0 -41 21.5 -66t56.5 -25z
M519 609h29q-40 -57 -74.5 -81.5t-75.5 -24.5q-19 0 -33 4.5t-38 19.5l-18 11q-19 11 -36 11q-35 0 -71 -46h-29q66 101 144 101q35 0 62 -18l19 -12q26 -15 47 -15q17 0 33 11t41 39z" />
    <glyph glyph-name="odieresis" unicode="&#xf6;" 
d="M468 301q0 -66 -38.5 -137.5t-108.5 -123t-147 -51.5q-68 0 -107.5 37.5t-39.5 102.5q0 118 93 215t205 97q64 0 103.5 -39t39.5 -101zM189 10q53 0 99.5 55t71 127.5t24.5 133.5q0 43 -19.5 68.5t-51.5 25.5q-50 0 -98 -53t-76 -127t-28 -139q0 -41 21.5 -66t56.5 -25z
M241 599q19 0 33.5 -15t14.5 -34q0 -20 -14.5 -34.5t-34.5 -14.5t-34.5 14.5t-14.5 35.5q0 20 14.5 34t35.5 14zM441 599q19 0 33.5 -15t14.5 -34q0 -20 -14.5 -34.5t-34.5 -14.5t-34.5 14.5t-14.5 35.5q0 20 14.5 34t35.5 14z" />
    <glyph glyph-name="divide" unicode="&#xf7;" horiz-adv-x="675" 
d="M590 220h-504v66h504v-66zM338 100q23 0 39.5 -17t16.5 -40q0 -22 -17 -38t-41 -16q-21 0 -37 16t-16 38q0 23 16.5 40t38.5 17zM338 517q23 0 39.5 -17t16.5 -40q0 -22 -17 -38t-40 -16q-22 0 -38 16t-16 38q0 23 16.5 40t38.5 17z" />
    <glyph glyph-name="oslash" unicode="&#xf8;" 
d="M124 -4q-96 30 -96 134q0 115 93 213t202 98q9 0 16 -1l55 114h34l-58 -119q99 -28 99 -137q0 -67 -40.5 -138.5t-109.5 -121t-143 -49.5q-14 0 -20 2l-61 -126h-35zM318 420q-55 0 -104 -55t-75.5 -129.5t-26.5 -138.5q0 -40 28 -68l188 389zM189 10q52 0 98.5 53.5
t72 125.5t25.5 136q0 50 -28 81l-190 -392q11 -4 22 -4z" />
    <glyph glyph-name="ugrave" unicode="&#xf9;" 
d="M118 376q0 14 -13.5 19t-46.5 5v14q68 8 150 27l3 -2l-91 -363q-1 -3 -1 -9q0 -25 21 -25q49 0 141 146q34 54 50.5 90.5t59.5 153.5h74l-79 -299q-19 -72 -19 -78q0 -17 11 -17q12 0 28 15t55 64l14 -9q-51 -73 -77 -95t-61 -22q-23 0 -35.5 12.5t-12.5 35.5
q0 31 45 197q-86 -144 -136 -195.5t-103 -51.5t-53 55q0 24 25 123l37 142q14 53 14 67z" />
    <glyph glyph-name="uacute" unicode="&#xfa;" 
d="M118 376q0 14 -13.5 19t-46.5 5v14q68 8 150 27l3 -2l-91 -363q-1 -3 -1 -9q0 -25 21 -25q49 0 141 146q34 54 50.5 90.5t59.5 153.5h74l-79 -299q-19 -72 -19 -78q0 -17 11 -17q12 0 28 15t55 64l14 -9q-51 -73 -77 -95t-61 -22q-23 0 -35.5 12.5t-12.5 35.5
q0 31 45 197q-86 -144 -136 -195.5t-103 -51.5t-53 55q0 24 25 123l37 142q14 53 14 67zM254 494l162 160q12 10 25 10q15 0 25.5 -10.5t10.5 -25.5q0 -18 -17 -28l-171 -106h-35z" />
    <glyph glyph-name="ucircumflex" unicode="&#xfb;" 
d="M118 376q0 14 -13.5 19t-46.5 5v14q68 8 150 27l3 -2l-91 -363q-1 -3 -1 -9q0 -25 21 -25q49 0 141 146q34 54 50.5 90.5t59.5 153.5h74l-79 -299q-19 -72 -19 -78q0 -17 11 -17q12 0 28 15t55 64l14 -9q-51 -73 -77 -95t-61 -22q-23 0 -35.5 12.5t-12.5 35.5
q0 31 45 197q-86 -144 -136 -195.5t-103 -51.5t-53 55q0 24 25 123l37 142q14 53 14 67zM458 507h-34l-100 103l-143 -103h-34l159 167h62z" />
    <glyph glyph-name="udieresis" unicode="&#xfc;" 
d="M118 376q0 14 -13.5 19t-46.5 5v14q68 8 150 27l3 -2l-91 -363q-1 -3 -1 -9q0 -25 21 -25q49 0 141 146q34 54 50.5 90.5t59.5 153.5h74l-79 -299q-19 -72 -19 -78q0 -17 11 -17q12 0 28 15t55 64l14 -9q-51 -73 -77 -95t-61 -22q-23 0 -35.5 12.5t-12.5 35.5
q0 31 45 197q-86 -144 -136 -195.5t-103 -51.5t-53 55q0 24 25 123l37 142q14 53 14 67zM231 600q19 0 33.5 -15t14.5 -34q0 -20 -14.5 -34.5t-34.5 -14.5t-34.5 14.5t-14.5 35.5q0 20 14.5 34t35.5 14zM431 600q19 0 33.5 -15t14.5 -34q0 -20 -14.5 -34.5t-34.5 -14.5
t-34.5 14.5t-14.5 35.5q0 20 14.5 34t35.5 14z" />
    <glyph glyph-name="yacute" unicode="&#xfd;" horiz-adv-x="444" 
d="M15 417q116 22 143 24q11 0 43 -93.5t43 -159.5l20 -116q122 202 122 259q0 18 -27 35t-27 38q0 16 11 26.5t28 10.5q23 0 39 -16.5t16 -38.5q0 -63 -74 -206.5t-171.5 -264.5t-153.5 -121q-22 0 -36.5 12.5t-14.5 31.5q0 16 11 27.5t28 11.5q13 0 34 -14t27 -14
q24 0 76.5 65t52.5 94q0 13 -14 82t-27 117q-34 129 -54.5 163t-63.5 34q-14 0 -31 -4v17zM237 494l162 160q12 10 25 10q15 0 25.5 -10.5t10.5 -25.5q0 -18 -17 -28l-171 -106h-35z" />
    <glyph glyph-name="thorn" unicode="&#xfe;" 
d="M130 -190v-15h-205v16q32 1 45 12.5t22 46.5l187 703q9 30 9 43q0 17 -10.5 21.5t-54.5 5.5v17q77 9 152 23l5 -5q-84 -320 -91 -343l2 -2q68 108 162 108q55 0 85.5 -33.5t30.5 -92.5q0 -119 -95.5 -222.5t-204.5 -103.5q-33 0 -66 17q-37 -142 -37 -165q0 -17 14.5 -24
t49.5 -7zM166 8q57 0 107.5 51t78 121t27.5 132q0 86 -62 86q-41 0 -78 -31t-57 -83q-22 -56 -43.5 -135t-21.5 -104q0 -16 13.5 -26.5t35.5 -10.5z" />
    <glyph glyph-name="ydieresis" unicode="&#xff;" horiz-adv-x="444" 
d="M15 417q116 22 143 24q11 0 43 -93.5t43 -159.5l20 -116q122 202 122 259q0 18 -27 35t-27 38q0 16 11 26.5t28 10.5q23 0 39 -16.5t16 -38.5q0 -63 -74 -206.5t-171.5 -264.5t-153.5 -121q-22 0 -36.5 12.5t-14.5 31.5q0 16 11 27.5t28 11.5q13 0 34 -14t27 -14
q24 0 76.5 65t52.5 94q0 13 -14 82t-27 117q-34 129 -54.5 163t-63.5 34q-14 0 -31 -4v17zM193 601q19 0 33.5 -15t14.5 -34q0 -20 -14.5 -34.5t-34.5 -14.5t-34.5 14.5t-14.5 35.5q0 20 14.5 34t35.5 14zM393 601q19 0 33.5 -15t14.5 -34q0 -20 -14.5 -34.5t-34.5 -14.5
t-34.5 14.5t-14.5 35.5q0 20 14.5 34t35.5 14z" />
    <glyph glyph-name="Iogonek" unicode="&#x12e;" horiz-adv-x="333" 
d="M137 653h247v-16q-44 -8 -57 -19.5t-25 -54.5l-123 -443q-11 -39 -11 -63q0 -21 12.5 -28.5t55.5 -12.5v-16q-16 -20 -16 -49q0 -27 15.5 -42t43.5 -15q44 0 83 32l17 -18q-53 -77 -125 -77q-39 0 -67 28t-28 68q0 33 27 73h-194v16q43 8 56 19.5t25 54.5l123 442
q11 39 11 62q0 21 -13.5 29.5t-56.5 13.5v16z" />
    <glyph glyph-name="obreve" unicode="&#x14f;" 
d="M491 663h29q-51 -157 -175 -157q-47 0 -79 24.5t-32 84.5q0 22 5 48h29v-1q0 -50 22 -73t70 -23q43 0 70.5 20t60.5 77zM468 301q0 -66 -38.5 -137.5t-108.5 -123t-147 -51.5q-68 0 -107.5 37.5t-39.5 102.5q0 118 93 215t205 97q64 0 103.5 -39t39.5 -101zM189 10
q53 0 99.5 55t71 127.5t24.5 133.5q0 43 -19.5 68.5t-51.5 25.5q-50 0 -98 -53t-76 -127t-28 -139q0 -41 21.5 -66t56.5 -25z" />
    <glyph glyph-name="Ohungarumlaut" unicode="&#x150;" horiz-adv-x="722" 
d="M575 719h-40l178 148q28 23 47 23q29 0 29 -24q0 -4 -1 -8q-5 -23 -39 -42zM419 719h-40l178 148q28 23 47 23q29 0 29 -24q0 -4 -1 -8q-5 -23 -39 -42zM60 221q0 88 40 172.5t101.5 143t134 94t138.5 35.5q97 0 161 -66.5t64 -167.5q0 -71 -31.5 -149.5t-85.5 -145.5
t-134.5 -111t-169.5 -44q-95 0 -156.5 67t-61.5 172zM295 15q64 0 122 48t95.5 119.5t59.5 151.5t22 147q0 70 -35 111t-94 41q-108 0 -190 -119q-45 -65 -77.5 -162.5t-32.5 -167.5q0 -81 33.5 -125t96.5 -44z" />
    <glyph glyph-name="OE" unicode="&#x152;" horiz-adv-x="944" 
d="M443 666q29 0 84.5 -6.5t67.5 -6.5h369l-31 -150h-16q0 73 -20 95t-100 22h-96q-28 0 -37 -32l-64 -227h12q41 0 63 0.5t44 4.5t32 8.5t22 17t18.5 26t18.5 38.5l18 -4l-66 -230l-20 2q1 8 2.5 16t2.5 13t1 13q0 35 -17.5 46t-77.5 13l-62 3l-52 -190l-3 -14
q-4 -13 -8 -30t-4 -25q0 -20 16 -28t59 -8q109 0 166.5 28t117.5 111l16 -6l-65 -166h-346q-43 0 -113 -4t-99 -4q-97 0 -162 66.5t-65 166.5q0 114 55 216t146 163.5t193 61.5zM448 634q-63 0 -119 -41t-92.5 -105t-58 -139.5t-21.5 -146.5q0 -178 144 -178q67 0 98.5 38.5
t58.5 136.5l73 268q20 73 20 88q0 35 -29 57t-74 22z" />
    <glyph glyph-name="oe" unicode="&#x153;" horiz-adv-x="694" 
d="M600 105l11 -11q-106 -106 -197 -106q-68 0 -104 68q-38 -37 -69 -52t-69 -15q-63 0 -104 41.5t-41 104.5q0 70 41 142t105.5 118t127.5 46q40 0 69.5 -21.5t42.5 -58.5q51 46 84.5 63t74.5 17q38 0 59.5 -18t21.5 -50q0 -38 -28 -71t-67.5 -53t-74.5 -32t-57 -14
q-31 -3 -36 -18q-10 -32 -10 -71q0 -37 21 -60.5t54 -23.5q29 0 58 15t87 60zM177 9q41 0 76.5 44.5t55 105.5t30.5 114t11 79q0 30 -16 48t-43 18q-45 0 -88 -52.5t-68 -126.5t-25 -139q0 -42 18 -66.5t49 -24.5zM399 215q63 20 81.5 27.5t37.5 21.5q69 51 69 113
q0 39 -34 39q-12 0 -26.5 -6.5t-37 -25t-46.5 -62t-44 -107.5z" />
    <glyph glyph-name="Scaron" unicode="&#x160;" 
d="M548 886l-160 -167h-62l-89 167h34l99 -103l144 103h34zM309 666q41 0 81.5 -12.5t49.5 -12.5q17 0 26 5t19 21h23l-40 -199l-18 3q-3 79 -27.5 120.5t-93.5 41.5q-51 0 -80.5 -27.5t-29.5 -74.5q0 -37 15.5 -61.5t83.5 -92.5t90.5 -107t22.5 -88q0 -85 -58 -142.5
t-144 -57.5q-38 0 -90.5 18t-65.5 18q-28 0 -38 -33h-18l34 223l20 -2q-2 -14 -2 -23q0 -71 42 -118.5t104 -47.5q55 0 92 38.5t37 94.5q0 36 -22 71.5t-53 66t-62.5 61.5t-53.5 70t-22 80q0 73 50 120t128 47z" />
    <glyph glyph-name="scaron" unicode="&#x161;" horiz-adv-x="389" 
d="M464 674l-160 -167h-62l-89 167h34l99 -103l144 103h34zM160 -11q-20 0 -54 9.5t-50 9.5q-14 0 -24 -21h-16l20 159h16q12 -71 36.5 -103.5t65.5 -32.5q33 0 53.5 21.5t20.5 55.5q0 29 -18.5 62t-41 57.5t-41 58.5t-18.5 66q0 50 33 80t88 30q20 0 51.5 -8.5t40.5 -8.5
q20 0 30 18h14l-20 -139h-16q-15 115 -92 115q-26 0 -41 -14.5t-15 -39.5q0 -24 19 -56t42 -58.5t42 -62.5t19 -68q0 -57 -40.5 -93.5t-103.5 -36.5z" />
    <glyph glyph-name="Ydieresis" unicode="&#x178;" horiz-adv-x="556" 
d="M278 56q0 -23 17.5 -30t71.5 -10v-16h-289v16q50 3 71.5 18.5t33.5 55.5l61 212l-77 269q-13 41 -23.5 50.5t-52.5 15.5v16h239v-16q-45 -5 -58.5 -11.5t-13.5 -24.5q0 -7 1.5 -16.5t7 -30t12 -42.5t20 -69t26.5 -96l38 46q150 175 150 213q0 17 -16.5 22.5t-52.5 8.5v16
h189v-16q-22 -10 -34 -20.5t-36 -40.5l-219 -270l-29 -101q-2 -9 -12 -41.5t-17.5 -62.5t-7.5 -45zM289 802q19 0 33.5 -15t14.5 -34q0 -20 -14.5 -34.5t-34.5 -14.5t-34.5 14.5t-14.5 35.5q0 20 14.5 34t35.5 14zM489 802q19 0 33.5 -15t14.5 -34q0 -20 -14.5 -34.5
t-34.5 -14.5t-34.5 14.5t-14.5 35.5q0 20 14.5 34t35.5 14z" />
    <glyph glyph-name="zacute" unicode="&#x17a;" horiz-adv-x="389" 
d="M269 -81q-39 0 -110.5 43t-105.5 43q-24 0 -46 -18l-9 9l310 372h-146q-35 0 -50 -11t-31 -48l-16 4l31 115h284v-11l-290 -344q45 -10 75.5 -33t42.5 -44.5t30.5 -38.5t42.5 -17q27 0 27 15q0 4 -7 19t-7 26q0 14 9.5 22.5t24.5 8.5q16 0 25.5 -10t9.5 -26
q0 -30 -28.5 -53t-65.5 -23zM208 494l162 160q12 10 25 10q15 0 25.5 -10.5t10.5 -25.5q0 -18 -17 -28l-171 -106h-35z" />
    <glyph glyph-name="Zcaron" unicode="&#x17d;" horiz-adv-x="556" 
d="M573 886l-160 -167h-62l-89 167h34l99 -103l144 103h34zM302 617q-32 0 -59 -3.5t-45 -8.5t-34 -14t-25 -15.5t-17.5 -19t-12 -19t-9 -19.5t-7.5 -16l-19 5l46 146h486v-14l-483 -603h161q54 0 92.5 6.5t61.5 14.5t42 28.5t28 36t26 49.5l19 -3l-54 -168h-505v14l479 603
h-171z" />
    <glyph glyph-name="zcaron" unicode="&#x17e;" horiz-adv-x="389" 
d="M467 674l-160 -167h-62l-89 167h34l99 -103l144 103h34zM269 -81q-39 0 -110.5 43t-105.5 43q-24 0 -46 -18l-9 9l310 372h-146q-35 0 -50 -11t-31 -48l-16 4l31 115h284v-11l-290 -344q45 -10 75.5 -33t42.5 -44.5t30.5 -38.5t42.5 -17q27 0 27 15q0 4 -7 19t-7 26
q0 14 9.5 22.5t24.5 8.5q16 0 25.5 -10t9.5 -26q0 -30 -28.5 -53t-65.5 -23z" />
    <glyph glyph-name="florin" unicode="&#x192;" horiz-adv-x="278" 
d="M424 613q0 -16 -12.5 -28t-28.5 -12q-17 0 -27.5 10.5t-10.5 27.5q0 11 5 20t5 13q0 12 -23 12q-79 0 -121 -228h108l-6 -32h-109l-72 -320q-64 -283 -201 -283q-29 0 -53.5 15.5t-24.5 43.5q0 16 10 29.5t26 13.5q15 0 27.5 -11t12.5 -26q0 -8 -4.5 -15.5t-4.5 -12.5
q0 -16 19 -16q64 0 98 162l88 420h-90l7 32h92q12 38 20.5 64t27.5 64.5t38.5 62t50 41.5t65.5 18q34 0 61 -16.5t27 -48.5z" />
    <glyph glyph-name="uni0197" unicode="&#x197;" horiz-adv-x="333" 
d="M384 637q-43 -8 -56.5 -20t-25.5 -54l-61 -219h92l-13 -44h-91q-1 -4 -21 -66.5t-30 -105.5t-10 -72q0 -7 2 -12.5t4.5 -9t8 -6.5t9 -4.5t11 -3t11 -2t12 -1.5t10.5 -1v-16h-244v16q42 8 55.5 20t25.5 54l58 210h-89l13 44h89q2 7 21 68.5t30.5 107.5t11.5 74
q0 17 -12 27t-20.5 11.5t-31.5 3.5q-4 1 -6 1v16h247v-16z" />
    <glyph glyph-name="circumflex" unicode="&#x2c6;" horiz-adv-x="333" 
d="M468 507h-34l-100 103l-143 -103h-34l159 167h62z" />
    <glyph glyph-name="verticallinelowmod" unicode="&#x2cc;" horiz-adv-x="250" 
d="M95 -259h-50l42 197h50z" />
    <glyph glyph-name="macronsub" unicode="&#x2cd;" horiz-adv-x="333" 
d="M290.901 -117l-21.8389 -51h-301l21.8389 51h301z" />
    <glyph glyph-name="tilde" unicode="&#x2dc;" horiz-adv-x="333" 
d="M486 626h29q-40 -57 -74.5 -81.5t-75.5 -24.5q-19 0 -33 4.5t-38 19.5l-18 11q-19 11 -36 11q-35 0 -71 -46h-29q66 101 144 101q35 0 62 -18l19 -12q26 -15 47 -15q17 0 33 11t41 39z" />
    <glyph glyph-name="uni02DF" unicode="&#x2df;" horiz-adv-x="352" 
d="M285 654l-107 95l36 24l107 -96l148 96l26 -24l-148 -95l107 -96l-36 -24l-107 96l-148 -96l-26 24z" />
    <glyph glyph-name="gammasuperior" unicode="&#x2e0;" horiz-adv-x="311" 
d="M421 522q-30 -8 -69 -58l-87 -112l6 -18t7 -23t5.5 -21.5t5 -25t1.5 -21.5q0 -39 -25.5 -75t-68.5 -36q-46 0 -46 56q0 16 4.5 32t7.5 25t16.5 28t16.5 23.5t22 28.5l-49 167q-7 25 -31 30l4 19h122l-4 -19q-30 -1 -30 -40q0 -15 5 -33.5t13.5 -42.5t9.5 -30
q2 2 27.5 32.5t40.5 52.5t18 36q1 5 1 8q0 16 -18 17l4 19h95zM245 214q0 22 -20 85q-19 -24 -26.5 -34t-17 -31.5t-9.5 -41.5q0 -35 27 -35q24 0 35 19t11 38z" />
    <glyph glyph-name="lsuper" unicode="&#x2e1;" horiz-adv-x="200" 
d="M163 635l4 19q62 15 101 26l2 -1l-74 -348q-3 -12 -3 -19q0 -12 8.5 -16.5t30.5 -5.5l-4 -19h-142l4 19q29 2 40 10.5t16 32.5l57 267q2 12 2 19q0 18 -20 18q-5 0 -19 -2h-3z" />
    <glyph glyph-name="ssuper" unicode="&#x2e2;" horiz-adv-x="243" 
d="M285 538l10 6h11l-15 -82h-9q-2 40 -13.5 56t-37.5 16q-21 0 -35.5 -10.5t-18.5 -28.5q-1 -4 -1 -9q0 -20 18 -32l57 -38q37 -25 37 -56q0 -7 -2 -15q-7 -32 -36.5 -54.5t-64.5 -22.5q-15 0 -37 5.5t-28 5.5q-9 0 -16 -8h-11l20 94h13v-2v-5.5v-6.5q0 -13 1.5 -22.5
t6.5 -21t17 -18t30 -6.5q23 0 38.5 11t20.5 30q1 5 1 10q0 20 -23 35l-31 20q-53 34 -53 71q0 7 1 15q7 33 34.5 53.5t63.5 20.5q20 0 34 -5.5t18 -5.5z" />
    <glyph glyph-name="xsuperior" unicode="&#x2e3;" horiz-adv-x="328" 
d="M260 453l12 12l11 11l8.5 8.5t7 7.5t5 6.5t4 6.5t2.5 6v4q0 8 -19 9l4 17h95l-4 -17q-36 -1 -55 -21l-62 -69l51 -118q9 -18 18 -23t26 -5l-4 -17h-121l4 17q13 1 16 3t5 11q1 6 -1 11l-33 76l-63 -74q-9 -10 -10 -16q-1 -3 -1 -4q0 -7 17 -7l-3 -17h-87l3 17
q4 0 9.5 0.5t7.5 0.5t6.5 1.5t7.5 3.5t7.5 6t10.5 11l89 99l-35 78q-9 20 -19 28t-24 8h-5l3 17h125l-4 -17q-21 -1 -24 -15v-4q0 -9 13 -40z" />
    <glyph glyph-name="glottalrevsuper" unicode="&#x2e4;" horiz-adv-x="300" 
d="M312 677q35 0 57.5 -15.5t22.5 -38.5q0 -4 -1 -8q-2 -10 -12 -17.5t-22 -7.5q-20 0 -22 27l-1 14q-1 16 -7 22t-22 6q-36 0 -65 -29t-39 -75q-4 -18 -4 -35q0 -37 19.5 -59.5t52.5 -22.5q7 0 13 1t7 1l-25 -117q-2 -11 -2 -18q0 -13 8.5 -18t30.5 -7l-2 -9h-141l2 9
q28 2 38 9.5t15 32.5l16 73q-39 2 -61.5 28.5t-22.5 68.5q0 18 4 37q14 65 61.5 106.5t101.5 41.5z" />
    <glyph glyph-name="sigma" unicode="&#x3c3;" horiz-adv-x="524" 
d="M359 286q0 19 -11 32.5t-32 13.5q-26 0 -57 -32l-14 19q34 42 81 42q51 0 84 -28.5t33 -72.5q0 -100 -83 -185.5t-183 -85.5q-75 0 -121 44.5t-46 119.5q0 121 85 204.5t201 83.5q34 0 85 -7.5t80 -7.5q16 0 24.5 1t18 6.5t13.5 16.5h20q-21 -76 -80 -76q-44 0 -92.5 22
t-78.5 22q-62 0 -107.5 -49t-65 -112t-19.5 -125q0 -51 21.5 -85.5t67.5 -34.5q56 0 97.5 45t60 105.5t18.5 123.5z" />
    <glyph glyph-name="uni03DB" unicode="&#x3db;" horiz-adv-x="496" 
d="M53 177q0 -20 2 -34t8.5 -30t22 -24.5t39.5 -8.5q21 0 47 3t37 3q49 0 83.5 -23t34.5 -77q0 -45 -20 -78.5t-52 -51.5t-66.5 -26t-70.5 -8q-35 0 -68.5 16.5t-33.5 47.5q0 13 9 21.5t19 8.5q28 0 48 -34q19 -34 67 -34q46 0 84.5 21t38.5 65q0 68 -71 68q-15 0 -43 -3
t-46 -3q-52 0 -82 40.5t-30 94.5q0 114 76.5 208t188.5 94q25 0 77 -3.5t78 -3.5q47 0 64 22h16q-25 -50 -54.5 -70.5t-83.5 -20.5q-18 0 -53.5 3t-52.5 3q-84 0 -148.5 -53t-64.5 -133z" />
    <glyph glyph-name="endash" unicode="&#x2013;" 
d="M53 250h500l-10 -49h-500z" />
    <glyph glyph-name="emdash" unicode="&#x2014;" horiz-adv-x="1000" 
d="M53 250h1000l-10 -49h-1000z" />
    <glyph glyph-name="quoteleft" unicode="&#x2018;" horiz-adv-x="250" 
d="M226 560q0 -13 22.5 -34.5t22.5 -42.5q0 -20 -14.5 -33.5t-36.5 -13.5q-25 0 -41.5 20.5t-16.5 50.5q0 86 130 159l9 -17q-75 -50 -75 -89z" />
    <glyph glyph-name="quoteright" unicode="&#x2019;" horiz-adv-x="250" 
d="M226 541q0 13 -22.5 35t-22.5 43q0 20 14.5 33.5t36.5 13.5q25 0 41.5 -20.5t16.5 -50.5q0 -88 -130 -159l-9 17q75 50 75 88z" />
    <glyph glyph-name="quotesinglbase" unicode="&#x201a;" horiz-adv-x="250" 
d="M100 -23q0 13 -22.5 34.5t-22.5 42.5q0 20 14.5 33.5t36.5 13.5q25 0 41.5 -20.5t16.5 -50.5q0 -86 -130 -159l-9 17q75 50 75 89z" />
    <glyph glyph-name="quotedblleft" unicode="&#x201c;" horiz-adv-x="444" 
d="M435 560q0 -13 22.5 -34.5t22.5 -42.5q0 -20 -14.5 -33.5t-36.5 -13.5q-25 0 -41.5 20.5t-16.5 50.5q0 86 130 159l9 -17q-75 -50 -75 -89zM226 560q0 -13 22.5 -34.5t22.5 -42.5q0 -20 -14.5 -33.5t-36.5 -13.5q-25 0 -41.5 20.5t-16.5 50.5q0 86 130 159l9 -17
q-75 -50 -75 -89z" />
    <glyph glyph-name="quotedblright" unicode="&#x201d;" horiz-adv-x="444" 
d="M476 541q0 13 -22.5 35t-22.5 43q0 20 14.5 33.5t36.5 13.5q25 0 41.5 -20.5t16.5 -50.5q0 -88 -130 -159l-9 17q75 50 75 88zM267 541q0 13 -22.5 35t-22.5 43q0 20 14.5 33.5t36.5 13.5q25 0 41.5 -20.5t16.5 -50.5q0 -88 -130 -159l-9 17q75 50 75 88z" />
    <glyph glyph-name="quotedblbase" unicode="&#x201e;" horiz-adv-x="444" 
d="M300 -23q0 13 -22.5 34.5t-22.5 42.5q0 20 14.5 33.5t36.5 13.5q25 0 41.5 -20.5t16.5 -50.5q0 -86 -130 -159l-9 17q75 50 75 89zM91 -23q0 13 -22.5 34.5t-22.5 42.5q0 20 14.5 33.5t36.5 13.5q25 0 41.5 -20.5t16.5 -50.5q0 -86 -130 -159l-9 17q75 50 75 89z" />
    <glyph glyph-name="dagger" unicode="&#x2020;" 
d="M444 395q-11 0 -51 15.5t-92 15.5q-9 -44 -9 -84q0 -55 16 -84q-20 -29 -44.5 -91.5t-36.5 -115.5l-48 -210h-22l20 101q34 170 34 252q0 13 -2.5 35.5t-2.5 32.5q56 62 74 164q-45 0 -85 -15.5t-50 -15.5q-44 0 -44 42q0 40 48 40q19 0 51 -14.5t85 -15.5q10 56 10 86
q0 15 -4.5 38.5t-4.5 37.5q0 57 47 57q42 0 42 -45q0 -25 -12 -41.5t-30 -48t-29 -84.5q52 1 85 15.5t52 14.5q47 0 47 -40q0 -42 -44 -42z" />
    <glyph glyph-name="daggerdbl" unicode="&#x2021;" 
d="M70 127q17 0 54 -15.5t61 -15.5h26q11 53 11 86q0 21 -16 82q28 27 45 63.5t31 99.5h-18q-24 0 -61 -15.5t-54 -15.5q-21 0 -34.5 12t-13.5 30t12.5 29t34.5 11q14 0 52 -14.5t86 -15.5q9 45 9 76q0 23 -4.5 52.5t-4.5 35.5q0 22 14.5 38t33.5 16q18 0 29.5 -12.5
t11.5 -32.5q0 -17 -31 -72t-38 -101q43 1 85.5 15.5t54.5 14.5q20 0 32.5 -11t12.5 -29t-13.5 -30t-35.5 -12q-16 0 -53 15.5t-61 15.5h-26q-11 -49 -11 -85q0 -27 16 -83q-28 -27 -45 -63.5t-31 -99.5h19q24 0 61 15.5t54 15.5q21 0 34.5 -12t13.5 -30t-12.5 -29t-34.5 -11
q-15 0 -52.5 14.5t-85.5 15.5q-10 -46 -10 -76q0 -24 4.5 -52.5t4.5 -35.5q0 -22 -14.5 -38t-33.5 -16q-18 0 -29.5 12.5t-11.5 33.5q0 18 30.5 72.5t38.5 99.5q-50 -1 -85.5 -15.5t-54.5 -14.5q-20 0 -32.5 11t-12.5 29t13.5 30t34.5 12z" />
    <glyph glyph-name="bullet" unicode="&#x2022;" horiz-adv-x="350" 
d="M298 461q47 0 75.5 -27.5t28.5 -72.5q0 -68 -56.5 -119t-119.5 -51q-46 0 -74.5 28t-28.5 72q0 64 53.5 117t121.5 53z" />
    <glyph glyph-name="ellipsis" unicode="&#x2026;" horiz-adv-x="889" 
d="M112 100q23 0 39.5 -17t16.5 -40q0 -22 -17 -38t-41 -16q-21 0 -37 16t-16 38q0 23 16.5 40t38.5 17zM409 100q23 0 39.5 -17t16.5 -40q0 -22 -17 -38t-41 -16q-21 0 -37 16t-16 38q0 23 16.5 40t38.5 17zM706 100q23 0 39.5 -17t16.5 -40q0 -22 -17 -38t-41 -16
q-21 0 -37 16t-16 38q0 23 16.5 40t38.5 17z" />
    <glyph glyph-name="perthousand" unicode="&#x2030;" horiz-adv-x="1000" 
d="M218 676q21 0 38.5 -10.5t29.5 -23t37.5 -23t59.5 -10.5q40 0 66.5 16.5t92.5 80.5h44l-431 -724h-46l393 659q-28 -32 -56.5 -45t-74.5 -13q-22 0 -65 14q1 -3 1 -7q3 -13 3 -27q0 -94 -50 -165.5t-116 -71.5q-50 0 -84.5 39.5t-34.5 97.5q0 84 58.5 148.5t134.5 64.5z
M251 621q-8 3 -21.5 16t-18.5 13q-29 0 -72 -78t-43 -146q0 -33 15.5 -53t42.5 -20q53 0 92.5 63.5t39.5 149.5q0 25 -6 34.5t-29 20.5zM487 -19q-51 0 -86 39t-35 101q0 81 58.5 145t132.5 64q44 0 68.5 -31t24.5 -87q0 -91 -49.5 -161t-113.5 -70zM492 8q57 0 96 68
t39 138q0 38 -17.5 63t-43.5 25q-34 0 -65 -40.5t-47 -91t-16 -90.5q0 -33 14.5 -52.5t39.5 -19.5zM847 -19q-51 0 -86 39t-35 101q0 81 58.5 145t132.5 64q44 0 68.5 -31t24.5 -87q0 -91 -49 -161t-114 -70zM852 8q57 0 96 67.5t39 138.5q0 38 -17.5 63t-43.5 25
q-34 0 -64.5 -38.5t-47 -90.5t-16.5 -97q0 -30 15 -49t39 -19z" />
    <glyph glyph-name="guilsinglleft" unicode="&#x2039;" horiz-adv-x="250" 
d="M200 37q-8 0 -70 77.5t-79 101.5v9l36 27q58 45 91 74q88 77 96 77q7 0 7 -8q0 -13 -20.5 -37.5t-68.5 -72.5t-67 -68l20 -40q62 -115 62 -133q0 -7 -7 -7z" />
    <glyph glyph-name="guilsinglright" unicode="&#x203a;" horiz-adv-x="250" 
d="M96 403q8 0 72 -79.5t77 -99.5v-9q-98 -76 -127 -101q-88 -77 -96 -77q-7 0 -7 8q0 13 23.5 41t67.5 72t63 65l-18 40q-62 115 -62 133q0 7 7 7z" />
    <glyph glyph-name="Euro" unicode="&#x20ac;" horiz-adv-x="741" 
d="M731 113q-53 -59 -137 -93t-161 -34q-129 0 -199.5 68t-70.5 186v13h-75l30 46h49q2 25 15 70h-70l30 46h57q51 117 156 189t231 72q72 0 138 -31.5t95 -85.5l-18 -27q-86 104 -215 104q-18 0 -39 -3.5t-55 -17t-64 -35.5t-62 -65t-54 -100h414l-30 -46h-399
q-11 -40 -14 -70h369l-30 -46h-344q-1 -8 -1 -16q0 -93 47 -150t145 -57q124 0 248 101z" />
    <glyph glyph-name="trademark" unicode="&#x2122;" horiz-adv-x="920" 
d="M1026.16 651.963v-10.5596q-29.0381 -4.62012 -37.2881 -11.8799t-16.8291 -36.959l-81.1768 -292.367q-7.25977 -25.0791 -7.25977 -40.2588t8.5791 -20.459q8.58008 -5.28027 42.2383 -7.91992v-10.5596h-180.172v10.5596q32.3379 3.2998 45.8672 13.1992
q13.5303 9.89941 20.79 36.2988l85.1357 310.188l-248.81 -370.245h-11.2197l-40.2578 360.346l-77.877 -285.769q-5.93945 -20.459 -5.93945 -34.9785q0 -13.8594 10.8887 -20.459q10.8896 -6.60059 35.9688 -8.58008v-10.5596h-130.675v10.5596
q25.7393 3.2998 37.9492 18.8096q12.209 15.5088 26.7285 66.9873l69.957 245.51q2.63965 11.2197 6.59961 23.0986q3.95996 11.8799 5.94043 19.1396q1.97949 7.25977 1.97949 11.8799q0 21.7783 -48.8379 24.4189v10.5596h119.455l36.2988 -325.367l221.751 325.367
h110.215zM517.763 651.963l-29.0381 -107.576l-11.2197 1.32031q1.97949 17.1592 1.97949 29.6982q0 27.7188 -16.499 40.5889q-16.499 12.8691 -52.1377 12.8691h-36.2988l-91.7363 -328.666q-7.91992 -29.6992 -7.91992 -38.9385q0 -14.5195 7.25977 -20.46
q7.25977 -5.93945 27.0596 -7.25977q1.97949 0 10.5596 -0.65918q8.5791 -0.660156 14.5186 -1.32031v-10.5596h-191.392v10.5596q32.998 2.63965 48.1777 12.8691t21.7793 35.9688l95.0361 348.466h-13.8594q-66.6572 0 -92.3965 -14.8496
q-25.7393 -14.8486 -50.8174 -66.3271l-11.8799 2.63965l27.7188 101.637h351.105z" />
  </font>
</defs>
</svg>
